<?xml version="1.0" encoding="utf-8"?>
<!-- Generator: Adobe Illustrator 25.0.0, SVG Export Plug-In . SVG Version: 6.00 Build 0)  -->
<svg version="1.1" xmlns="http://www.w3.org/2000/svg" xmlns:xlink="http://www.w3.org/1999/xlink" x="0px" y="0px"
	 viewBox="0 0 2560 1400" style="enable-background:new 0 0 2560 1400;" xml:space="preserve">
<style type="text/css">
	.st0{opacity:0.5;}
	.st1{fill:#FFFFFF;}
	.st2{fill:#8E5BA6;}
	.st3{fill:#FFCB05;}
	.st4{fill:url(#SVGID_1_);}
	.st5{fill:#7A3180;}
	.st6{fill:#A154A1;}
	.st7{opacity:0.5;fill:#543767;}
	.st8{fill:#AEE1F1;}
	.st9{fill:#00B5BC;}
	.st10{opacity:0.5;fill:#008BCF;}
	.st11{opacity:0.5;fill:#FFFFFF;}
	.st12{opacity:0.1;fill:#F7941D;}
	.st13{opacity:0.15;fill:#F7941D;}
	.st14{clip-path:url(#SVGID_3_);fill:#010101;stroke:#000000;stroke-miterlimit:10;}
	.st15{clip-path:url(#SVGID_3_);fill:#010101;stroke:#000000;stroke-width:1.1114;stroke-miterlimit:10;}
	.st16{clip-path:url(#SVGID_3_);fill:#134142;}
	.st17{clip-path:url(#SVGID_3_);fill:#336D6E;}
	.st18{opacity:0.5;clip-path:url(#SVGID_3_);fill:#3F8284;}
	.st19{fill:#255758;}
	.st20{fill:#3F8284;}
	.st21{fill:url(#SVGID_4_);}
	.st22{fill:url(#SVGID_5_);}
	.st23{fill:#F7941D;}
	.st24{fill:#00ABE6;}
	.st25{fill:#A45486;}
	.st26{fill:none;stroke:#FFFFFF;stroke-width:4;stroke-linecap:round;stroke-linejoin:round;stroke-miterlimit:10;}
	.st27{fill:#F7941D;stroke:#FFFFFF;stroke-width:4;stroke-linecap:round;stroke-linejoin:round;stroke-miterlimit:10;}
	.st28{fill:#FFCB05;stroke:#FFFFFF;stroke-width:4;stroke-linecap:round;stroke-linejoin:round;stroke-miterlimit:10;}
	.st29{fill:none;stroke:#FFFFFF;stroke-width:6;stroke-linecap:round;stroke-linejoin:round;stroke-miterlimit:10;}
	.st30{fill:#FFCB05;stroke:#FFFFFF;stroke-width:6;stroke-linecap:round;stroke-linejoin:round;stroke-miterlimit:10;}
	.st31{fill:#F7941D;stroke:#FFFFFF;stroke-width:6;stroke-linecap:round;stroke-linejoin:round;stroke-miterlimit:10;}
	.st32{fill:none;stroke:#FFFFFF;stroke-width:7;stroke-linecap:round;stroke-linejoin:round;stroke-miterlimit:10;}
	.st33{fill:#F7941D;stroke:#FFFFFF;stroke-width:7;stroke-linecap:round;stroke-linejoin:round;stroke-miterlimit:10;}
	.st34{fill:#FFCB05;stroke:#FFFFFF;stroke-width:7;stroke-linecap:round;stroke-linejoin:round;stroke-miterlimit:10;}
	.st35{fill:none;stroke:#FFFFFF;stroke-width:4.2497;stroke-linecap:round;stroke-linejoin:round;stroke-miterlimit:10;}
	.st36{fill:#FFCB05;stroke:#FFFFFF;stroke-width:4.2497;stroke-linecap:round;stroke-linejoin:round;stroke-miterlimit:10;}
	.st37{fill:#7B3365;stroke:#FFFFFF;stroke-width:27.0766;stroke-linecap:round;stroke-linejoin:round;stroke-miterlimit:10;}
	.st38{fill:#4A2552;stroke:#FFFFFF;stroke-width:27.0766;stroke-linecap:round;stroke-linejoin:round;stroke-miterlimit:10;}
	.st39{fill:none;stroke:url(#SVGID_6_);stroke-width:27.0766;stroke-linejoin:round;stroke-miterlimit:10;}
	.st40{fill:none;stroke:#FFFFFF;stroke-width:27.0766;stroke-linecap:round;stroke-linejoin:round;stroke-miterlimit:10;}
	.st41{fill:#4A2552;stroke:#FFFFFF;stroke-width:17;stroke-linecap:round;stroke-linejoin:round;stroke-miterlimit:10;}
	.st42{fill:#7B3365;stroke:#FFFFFF;stroke-width:17;stroke-linecap:round;stroke-linejoin:round;stroke-miterlimit:10;}
	.st43{fill:none;stroke:#FFFFFF;stroke-width:17;stroke-linecap:round;stroke-linejoin:round;stroke-miterlimit:10;}
	.st44{fill:none;stroke:url(#SVGID_7_);stroke-width:17;stroke-linejoin:round;stroke-miterlimit:10;}
	.st45{fill:#4A2552;stroke:#FFFFFF;stroke-width:30;stroke-linecap:round;stroke-linejoin:round;stroke-miterlimit:10;}
	.st46{fill:#7B3365;stroke:#FFFFFF;stroke-width:30;stroke-linecap:round;stroke-linejoin:round;stroke-miterlimit:10;}
	.st47{fill:none;stroke:url(#SVGID_8_);stroke-width:30;stroke-linejoin:round;stroke-miterlimit:10;}
	.st48{fill:none;stroke:#FFFFFF;stroke-width:30;stroke-linecap:round;stroke-linejoin:round;stroke-miterlimit:10;}
	.st49{fill:#4A2552;stroke:#FFFFFF;stroke-width:20;stroke-linecap:round;stroke-linejoin:round;stroke-miterlimit:10;}
	.st50{fill:#7B3365;stroke:#FFFFFF;stroke-width:20;stroke-linecap:round;stroke-linejoin:round;stroke-miterlimit:10;}
	.st51{fill:none;stroke:url(#SVGID_9_);stroke-width:20;stroke-linejoin:round;stroke-miterlimit:10;}
	.st52{fill:none;stroke:#FFFFFF;stroke-width:20;stroke-linecap:round;stroke-linejoin:round;stroke-miterlimit:10;}
	.st53{fill:#4A2552;stroke:#FFFFFF;stroke-width:24.2734;stroke-linecap:round;stroke-linejoin:round;stroke-miterlimit:10;}
	.st54{fill:#7B3365;stroke:#FFFFFF;stroke-width:24.2734;stroke-linecap:round;stroke-linejoin:round;stroke-miterlimit:10;}
	.st55{fill:none;stroke:url(#SVGID_10_);stroke-width:24.2734;stroke-linejoin:round;stroke-miterlimit:10;}
	.st56{fill:none;stroke:#FFFFFF;stroke-width:24.2734;stroke-linecap:round;stroke-linejoin:round;stroke-miterlimit:10;}
	.st57{fill:none;stroke:url(#SVGID_11_);stroke-width:30;stroke-linejoin:round;stroke-miterlimit:10;}
</style>
<g id="sky">
	<g>
		<g class="st0">
			<circle class="st1" cx="2005.71" cy="448.45" r="4.1"/>
		</g>
		<g class="st0">
			<circle class="st2" cx="2221.76" cy="556.18" r="3.28"/>
		</g>
		<g class="st0">
			<circle class="st1" cx="1972.32" cy="508.88" r="1.64"/>
		</g>
		<g class="st0">
			<circle class="st1" cx="1927.01" cy="450.91" r="2.46"/>
		</g>
		<g class="st0">
			<circle class="st1" cx="2297.29" cy="481.67" r="2.87"/>
		</g>
		<g class="st0">
			<circle class="st1" cx="2527.45" cy="322.96" r="0.82"/>
		</g>
		<g class="st0">
			<circle class="st2" cx="176.25" cy="24.58" r="4.1"/>
		</g>
		<g class="st0">
			<circle class="st2" cx="580.49" cy="363.31" r="2.46"/>
		</g>
		<g class="st0">
			<circle class="st1" cx="141.16" cy="413.95" r="4.1"/>
		</g>
		<g class="st0">
			<circle class="st1" cx="84.86" cy="321.03" r="1.64"/>
		</g>
		<g class="st0">
			<circle class="st1" cx="151.82" cy="397.55" r="1.64"/>
		</g>
		<g class="st0">
			<circle class="st1" cx="23.36" cy="115.93" r="3.28"/>
		</g>
		<g class="st0">
			
				<ellipse transform="matrix(0.6877 -0.726 0.726 0.6877 -249.2622 262.3746)" class="st1" cx="180.36" cy="420.94" rx="2.46" ry="2.46"/>
		</g>
		<g class="st0">
			<circle class="st1" cx="453.98" cy="524.44" r="2.87"/>
		</g>
		<g class="st0">
			<circle class="st3" cx="641.26" cy="543.03" r="4"/>
		</g>
		<g class="st0">
			<circle class="st1" cx="2502.85" cy="328.99" r="2.46"/>
		</g>
		<g class="st0">
			<circle class="st1" cx="543.95" cy="620.96" r="2.87"/>
		</g>
		<g class="st0">
			<circle class="st3" cx="2138.68" cy="142.1" r="4.92"/>
		</g>
		<g class="st0">
			<circle class="st1" cx="2392.31" cy="344.16" r="2.46"/>
		</g>
		<g class="st0">
			<circle class="st1" cx="2121.57" cy="174.63" r="1.64"/>
		</g>
		<g class="st0">
			
				<ellipse transform="matrix(0.5613 -0.8276 0.8276 0.5613 827.2059 1976.66)" class="st1" cx="2277.98" cy="208.11" rx="4.1" ry="4.1"/>
		</g>
		<g class="st0">
			
				<ellipse transform="matrix(0.5613 -0.8276 0.8276 0.5613 1003.067 1916.9725)" class="st1" cx="2309.61" cy="12.4" rx="2.46" ry="2.46"/>
		</g>
		<g class="st0">
			<circle class="st1" cx="2460.62" cy="256.97" r="2.87"/>
		</g>
		<g class="st0">
			<circle class="st3" cx="2452.18" cy="367.74" r="5.5"/>
		</g>
		<g class="st0">
			<circle class="st1" cx="446.52" cy="65.73" r="2.87"/>
		</g>
		<g class="st0">
			<circle class="st1" cx="488.16" cy="156.33" r="4.1"/>
		</g>
		<g class="st0">
			<circle class="st2" cx="417.69" cy="194.72" r="4.92"/>
		</g>
		<g class="st0">
			<circle class="st2" cx="1481.29" cy="408.14" r="2.46"/>
		</g>
		<g class="st0">
			<circle class="st1" cx="388.96" cy="171.79" r="1.64"/>
		</g>
		<g class="st0">
			
				<ellipse transform="matrix(0.7071 -0.7071 0.7071 0.7071 200.6583 1392.3462)" class="st1" cx="1781.04" cy="453.96" rx="2.46" ry="2.46"/>
		</g>
		<g class="st0">
			<circle class="st1" cx="1669.41" cy="510.02" r="2.87"/>
		</g>
		<g class="st0">
			<circle class="st1" cx="1423.67" cy="415.62" r="3.28"/>
		</g>
		<g class="st0">
			
				<ellipse transform="matrix(0.7071 -0.7071 0.7071 0.7071 50.2653 1401.0024)" class="st1" cx="1716.29" cy="639.83" rx="2.46" ry="2.46"/>
		</g>
	</g>
	<g>
		<circle class="st3" cx="2352.82" cy="95.9" r="75.61"/>
		
			<radialGradient id="SVGID_1_" cx="1925.6156" cy="253.9975" r="100.8071" gradientTransform="matrix(-0.9937 -0.1119 -0.1119 0.9937 4263.1157 14.5969)" gradientUnits="userSpaceOnUse">
			<stop  offset="0" style="stop-color:#A154A1"/>
			<stop  offset="1" style="stop-color:#7A3180"/>
		</radialGradient>
		<path class="st4" d="M2285.17,103c0.52,0.5,1.06,0.96,1.59,1.46l0.79,0.75l0.4,0.38c0.13,0.12,0.27,0.26,0.36,0.35
			c0.82,0.78,1.53,1.64,2.24,2.57c0.71,0.94,1.38,1.98,2.06,3.14c0.67,1.16,1.33,2.46,2.01,3.83c0.68,1.38,1.37,2.84,2.09,4.35
			c0.74,1.51,1.49,3.07,2.31,4.64c0.81,1.56,1.7,3.13,2.65,4.66c0.47,0.77,0.98,1.52,1.47,2.27c0.52,0.74,1.04,1.47,1.59,2.19
			c2.16,2.88,4.63,5.45,7.22,7.77c1.32,1.13,2.64,2.25,4.03,3.28c1.36,1.06,2.8,2.03,4.25,2.94c1.46,0.89,2.93,1.75,4.42,2.53
			c1.48,0.82,2.98,1.55,4.47,2.3c5.97,2.97,11.94,5.7,17.37,9.08c1.36,0.84,2.68,1.71,3.96,2.62c0.64,0.45,1.25,0.94,1.87,1.41
			c0.61,0.48,1.2,0.98,1.79,1.46c1.57,1.35,3.02,2.79,4.32,4.31c-8.04,0.59-16.32-0.1-24.56-2.23
			c-33.79-8.76-56.28-39.04-56.63-72.35c0.45,0.31,0.91,0.62,1.35,0.94C2280.87,99.32,2283.05,101.08,2285.17,103z M2356.68,158.66
			c-0.78-0.39-1.55-0.8-2.34-1.17c-1.56-0.76-3.12-1.48-4.69-2.14c-6.27-2.67-12.55-4.81-18.57-7.28
			c-5.98-2.49-11.79-5.29-16.08-9.86c-1.04-1.15-2.02-2.35-2.82-3.66c-0.43-0.63-0.77-1.33-1.14-1.99c-0.32-0.7-0.67-1.37-0.93-2.09
			c-0.56-1.42-1.02-2.87-1.35-4.37c-0.35-1.49-0.61-3.01-0.82-4.58c-0.22-1.56-0.4-3.15-0.6-4.8c-0.21-1.64-0.43-3.34-0.77-5.1
			c-0.34-1.75-0.78-3.57-1.42-5.42c-0.64-1.86-1.5-3.74-2.59-5.56c-1.1-1.81-2.43-3.56-3.97-5.08c-0.2-0.21-0.36-0.36-0.53-0.51
			l-0.51-0.47l-1.01-0.93c-0.7-0.6-1.42-1.2-2.14-1.77c-2.92-2.3-6.22-4.26-9.72-5.71c-2.13-0.88-4.33-1.56-6.55-2.03
			c0.37-2.36,0.86-4.72,1.47-7.08c5.4,1.69,10.71,3.71,15.87,6.01c7.44,3.32,14.59,7.27,21.21,11.85c3.3,2.3,6.47,4.75,9.44,7.39
			c1.49,1.31,2.91,2.69,4.3,4.08c0.67,0.72,1.37,1.41,2.01,2.15c0.32,0.36,0.67,0.73,0.97,1.08c0.29,0.36,0.59,0.69,0.88,1.06
			c2.34,2.93,4.52,6.35,6.68,9.83l6.51,10.76c2.24,3.64,4.55,7.3,7.17,10.91c2.63,3.6,5.5,7.19,9.17,10.49
			c0.47,0.41,0.92,0.82,1.42,1.22c0.49,0.4,1,0.81,1.44,1.13l1.36,1.02l1.38,0.99c1.85,1.29,3.74,2.53,5.66,3.7
			c2.64,1.6,5.34,3.07,8.08,4.43c-3.78,1.66-7.71,3.01-11.74,4.04c-1.11-1.1-2.26-2.14-3.45-3.13c-2.86-2.37-5.87-4.41-8.96-6.14
			C2358.23,159.5,2357.46,159.06,2356.68,158.66z M2333.85,121.54c-4.53-6.8-11.68-10-15.98-7.14c-4.3,2.86-4.11,10.69,0.41,17.5
			c4.53,6.8,11.68,10,15.98,7.14C2338.56,136.18,2338.37,128.35,2333.85,121.54z M2411.91,107.48l-0.54-0.32l-1.08-0.63
			c-0.72-0.41-1.44-0.86-2.16-1.22l-2.16-1.12c-0.72-0.38-1.44-0.69-2.16-1.04c-5.75-2.71-11.5-4.66-17.22-6.3
			c-2.86-0.79-5.71-1.54-8.52-2.19c-2.81-0.65-5.62-1.28-8.28-1.85l-1.95-0.44l-1.81-0.43l-1.9-0.53c-0.63-0.18-1.27-0.35-1.9-0.56
			c-1.26-0.41-2.55-0.77-3.81-1.23l-1.9-0.65l-1.89-0.71c-5.05-1.91-10.04-4.17-14.88-6.77c-9.63-5.24-18.73-11.81-26.1-19.93
			c-3.7-4.08-7.07-8.53-10.31-13.17c-1.36-1.94-2.7-3.9-4.05-5.88c3.24-3.25,6.76-6.18,10.51-8.78c1.07,1.31,2.28,2.57,3.59,3.73
			c2.77,2.47,6.13,4.38,9.41,5.57c3.28,1.21,6.42,1.8,9.21,2.3c2.8,0.49,5.32,0.9,7.59,1.51c1.14,0.31,2.23,0.67,3.28,1.09
			c1.05,0.44,2.05,0.96,3.05,1.54c1.85,1.1,3.58,2.69,5.18,4.65c1.6,1.95,3.05,4.25,4.48,6.65c1.42,2.41,2.82,4.94,4.4,7.45
			c0.8,1.24,1.63,2.49,2.54,3.7c0.91,1.21,1.92,2.36,3.01,3.45c0.55,0.54,1.12,1.06,1.72,1.55c0.29,0.25,0.6,0.49,0.91,0.72
			l0.46,0.35l0.45,0.31l1.81,1.21l0.9,0.61c0.3,0.21,0.6,0.41,0.91,0.59c4.89,3.11,10.1,5.65,15.36,8.01
			c5.26,2.36,10.61,4.55,15.8,6.87c5.19,2.31,10.2,4.75,14.95,7.3l1.78,0.96l1.74,0.99l1.73,0.98l1.66,0.99
			c0.59,0.36,1.17,0.73,1.75,1.09c-0.38,2.32-0.86,4.65-1.46,6.98c-0.24,0.94-0.51,1.88-0.79,2.8c-0.39-0.38-0.78-0.75-1.19-1.11
			c-1.22-1.1-2.47-2.16-3.74-3.18c-2.55-2.03-5.17-3.91-7.87-5.59L2411.91,107.48z M2343.58,54.46c-7.53-5.2-16.22-5.67-19.41-1.04
			s0.31,12.59,7.84,17.79s16.22,5.67,19.41,1.04C2354.62,67.62,2351.11,59.66,2343.58,54.46z M2425.32,92.46
			c-0.72-0.22-1.44-0.4-2.16-0.6c-5.76-1.6-11.57-2.48-17.21-3.35c-5.65-0.86-11.16-1.81-16.45-3.51c-0.66-0.22-1.32-0.42-1.97-0.66
			l-1.93-0.75c-1.3-0.48-2.53-1.1-3.78-1.69c-0.31-0.15-0.62-0.3-0.93-0.45l-0.9-0.5l-1.8-1.02c-0.61-0.32-1.17-0.73-1.75-1.1
			l-1.72-1.13c-1.13-0.78-2.21-1.65-3.3-2.48l-0.41-0.31l-0.36-0.32c-0.24-0.21-0.48-0.42-0.7-0.65c-0.46-0.44-0.89-0.92-1.31-1.41
			c-0.83-0.98-1.56-2.07-2.22-3.21c-0.66-1.14-1.27-2.33-1.81-3.57c-1.11-2.47-2.02-5.09-3.01-7.79c-0.49-1.35-1-2.72-1.57-4.11
			c-0.56-1.39-1.19-2.79-1.91-4.19c-1.44-2.79-3.34-5.62-5.92-8.05c-1.23-1.15-2.57-2.21-3.98-3.17c-1.41-0.95-2.9-1.77-4.39-2.48
			c-1.49-0.72-2.99-1.33-4.44-1.84c-1.46-0.52-2.86-1-4.21-1.43c-2.69-0.86-5.04-1.68-6.99-2.63c-0.98-0.47-1.84-0.99-2.64-1.55
			c-0.8-0.56-1.54-1.16-2.22-1.85c-0.08-0.08-0.16-0.16-0.24-0.24c9.15-3.92,19.1-6.06,29.34-6.11c0.34,0.56,0.69,1.12,1.04,1.68
			c0.56,0.84,1.14,1.67,1.72,2.51l1.84,2.43c0.64,0.79,1.3,1.56,1.95,2.35c0.67,0.77,1.35,1.52,2.04,2.27
			c0.71,0.73,1.42,1.46,2.14,2.18c5.82,5.71,12.54,10.49,19.75,14.3c7.21,3.8,14.89,6.64,22.77,8.42c0.99,0.22,1.98,0.42,2.96,0.62
			c0.99,0.18,1.98,0.36,2.98,0.52c1,0.14,1.99,0.3,2.99,0.42l3,0.32c0.28,0.02,0.55,0.04,0.83,0.06c1.97,3.44,3.67,7.02,5.08,10.73
			c-1.75-0.54-3.51-1.03-5.27-1.47c-3.63-0.91-7.27-1.62-10.92-2.19c-0.91-0.15-1.83-0.27-2.74-0.39l-2.7-0.36
			c-1.75-0.25-3.49-0.52-5.22-0.8c-3.45-0.6-6.86-1.26-10.12-2.26c-3.26-0.98-6.38-2.28-9.09-4.27c-1.36-0.99-2.58-2.18-3.68-3.53
			c-1.07-1.37-2-2.91-2.78-4.57c0.14,1.83,0.55,3.67,1.26,5.45c0.72,1.77,1.73,3.45,2.98,4.96c1.26,1.5,2.71,2.85,4.28,4
			c1.57,1.17,3.24,2.15,4.95,3.04c3.43,1.74,6.99,3.05,10.56,4.12c1.78,0.55,3.58,1.02,5.36,1.47c0.44,0.11,0.9,0.22,1.33,0.34
			l1.28,0.35c0.86,0.22,1.71,0.47,2.56,0.7c3.41,0.93,6.79,1.92,10.11,2.98c1.66,0.52,3.3,1.1,4.93,1.66
			c1.62,0.6,3.23,1.18,4.81,1.83c0.5,0.2,1,0.41,1.49,0.62c0.85,4.16,1.36,8.41,1.5,12.73c-0.31-0.1-0.63-0.21-0.94-0.31
			L2425.32,92.46z M2408.07,48.96c-7.04-3-13.91-6.16-20.56-9.68c-6.65-3.51-13.09-7.38-19.37-11.63l-2.35-1.62
			c-0.78-0.55-1.55-1.11-2.34-1.65c-0.77-0.56-1.54-1.14-2.32-1.69l-2.32-1.73c-0.21-0.16-0.41-0.31-0.62-0.47
			c4.52,0.33,9.07,1.06,13.6,2.24c17.65,4.58,32.21,15.02,42.15,28.7l-0.57-0.23L2408.07,48.96z M2376.89,145.84l-1.22-0.78
			l-1.2-0.81c-0.43-0.28-0.74-0.52-1.08-0.76c-0.34-0.23-0.67-0.52-1.01-0.78c-2.69-2.19-5.27-5.04-7.72-8.11
			c-2.45-3.08-4.79-6.41-7.11-9.82l-7.02-10.47c-2.43-3.54-4.92-7.11-7.98-10.62c-0.37-0.44-0.79-0.87-1.19-1.31
			c-0.4-0.43-0.79-0.81-1.18-1.21c-0.78-0.81-1.6-1.56-2.4-2.34c-1.64-1.51-3.3-2.98-5.03-4.36c-3.43-2.79-7.03-5.32-10.73-7.65
			c-7.4-4.64-15.21-8.49-23.24-11.65c-5.52-2.17-11.14-4.02-16.86-5.54c2.98-8.06,7.23-15.35,12.46-21.71
			c1.17,1.47,2.33,2.97,3.49,4.48c3.46,4.52,6.89,9.16,10.64,13.64c3.75,4.51,7.84,8.72,12.07,12.76c1.05,1.02,2.13,2,3.22,2.99
			c1.07,1,2.18,1.95,3.28,2.93c1.09,0.98,2.25,1.89,3.36,2.85c1.13,0.94,2.28,1.86,3.42,2.79c4.62,3.66,9.44,7.14,14.52,10.33
			l1.91,1.19l1.95,1.14c1.29,0.78,2.64,1.49,3.98,2.21c0.67,0.37,1.35,0.7,2.04,1.04l2.06,1.02c0.72,0.33,1.49,0.67,2.21,0.97
			l2.1,0.87c2.75,1.13,5.38,2.12,7.98,3.15l3.87,1.51c1.27,0.51,2.55,1.02,3.8,1.53c5.01,2.04,9.88,4.14,14.3,6.48
			c0.54,0.3,1.12,0.57,1.64,0.88l1.58,0.92c0.54,0.3,1,0.63,1.5,0.95l0.74,0.48l0.37,0.24l0.38,0.27c2.06,1.41,4.02,2.88,5.85,4.45
			c0.92,0.78,1.81,1.59,2.67,2.41c0.44,0.41,0.85,0.83,1.27,1.25c0.42,0.42,0.82,0.86,1.23,1.28c1.15,1.24,2.23,2.53,3.28,3.88
			c-1.64,2.38-3.41,4.65-5.29,6.8c-0.48-0.51-0.96-1.02-1.46-1.51c-4.31-4.34-9.17-7.94-14.29-10.85c-2.56-1.45-5.19-2.73-7.84-3.88
			c-1.33-0.57-2.66-1.11-4-1.63l-2-0.78c-0.66-0.27-1.33-0.52-1.95-0.87c0.53,0.49,1.13,0.89,1.71,1.32l1.76,1.23
			c1.17,0.82,2.33,1.65,3.46,2.5c2.26,1.71,4.43,3.5,6.45,5.41c4.06,3.81,7.56,8.06,10.31,12.64c0.56,0.92,1.08,1.85,1.58,2.79
			c-1.53,1.38-3.12,2.71-4.76,3.96c-2.09-0.69-4.15-1.44-6.19-2.24c-3.67-1.45-7.24-3.08-10.68-4.93
			C2380.2,147.85,2378.53,146.86,2376.89,145.84z"/>
		<path class="st5" d="M2424.06,105.82l-1.73-0.98l-1.74-0.99l-1.78-0.96c-4.75-2.55-9.76-4.98-14.95-7.3
			c-5.19-2.32-10.54-4.51-15.8-6.87c-5.26-2.36-10.47-4.9-15.36-8.01c-0.31-0.18-0.62-0.38-0.91-0.59l-0.9-0.61l-1.81-1.21
			l-0.45-0.31l-0.46-0.35c-0.31-0.23-0.62-0.46-0.91-0.72c-0.6-0.49-1.16-1.02-1.72-1.55c-1.09-1.08-2.1-2.24-3.01-3.45
			c-0.91-1.21-1.74-2.46-2.54-3.7c-1.58-2.5-2.98-5.04-4.4-7.45c-1.43-2.4-2.87-4.7-4.48-6.65c-1.6-1.96-3.33-3.55-5.18-4.65
			c-1-0.58-2-1.1-3.05-1.54c-1.06-0.42-2.15-0.78-3.28-1.09c-2.27-0.61-4.79-1.02-7.59-1.51c-2.79-0.5-5.93-1.09-9.21-2.3
			c-3.28-1.19-6.64-3.1-9.41-5.57c-1.31-1.17-2.52-2.42-3.59-3.73c4.17-2.88,8.63-5.34,13.29-7.34c0.08,0.08,0.16,0.16,0.24,0.24
			c0.68,0.69,1.42,1.29,2.22,1.85c0.8,0.56,1.66,1.08,2.64,1.55c1.95,0.94,4.3,1.77,6.99,2.63c1.34,0.43,2.75,0.91,4.21,1.43
			c1.45,0.52,2.95,1.12,4.44,1.84c1.49,0.71,2.98,1.53,4.39,2.48c1.41,0.96,2.75,2.02,3.98,3.17c2.58,2.43,4.48,5.26,5.92,8.05
			c0.73,1.4,1.35,2.8,1.91,4.19c0.57,1.38,1.08,2.76,1.57,4.11c0.99,2.7,1.9,5.32,3.01,7.79c0.54,1.24,1.14,2.43,1.81,3.57
			c0.66,1.14,1.39,2.22,2.22,3.21c0.41,0.49,0.84,0.97,1.31,1.41c0.22,0.23,0.46,0.44,0.7,0.65l0.36,0.32l0.41,0.31
			c1.1,0.83,2.17,1.7,3.3,2.48l1.72,1.13c0.58,0.37,1.14,0.78,1.75,1.1l1.8,1.02l0.9,0.5c0.31,0.16,0.62,0.3,0.93,0.45
			c1.25,0.59,2.48,1.21,3.78,1.69l1.93,0.75c0.65,0.24,1.32,0.44,1.97,0.66c5.29,1.7,10.8,2.65,16.45,3.51
			c5.64,0.87,11.45,1.75,17.21,3.35c0.72,0.2,1.44,0.39,2.16,0.6l2.14,0.71c0.31,0.11,0.63,0.21,0.94,0.31
			c0.15,4.76-0.15,9.59-0.93,14.43c-0.58-0.37-1.17-0.73-1.75-1.09L2424.06,105.82z"/>
		<path class="st5" d="M2303.34,48.39c3.24,4.63,6.61,9.09,10.31,13.17c7.38,8.12,16.47,14.69,26.1,19.93
			c4.84,2.6,9.83,4.86,14.88,6.77l1.89,0.71l1.9,0.65c1.26,0.46,2.54,0.82,3.81,1.23c0.63,0.21,1.27,0.38,1.9,0.56l1.9,0.53
			l1.81,0.43l1.95,0.44c2.66,0.57,5.47,1.2,8.28,1.85c2.82,0.65,5.66,1.4,8.52,2.19c5.71,1.64,11.47,3.58,17.22,6.3
			c0.72,0.35,1.44,0.65,2.16,1.04l2.16,1.12c0.72,0.36,1.44,0.81,2.16,1.22l1.08,0.63l0.54,0.32l0.51,0.32
			c2.7,1.68,5.33,3.56,7.87,5.59c1.27,1.02,2.52,2.08,3.74,3.18c0.4,0.36,0.8,0.74,1.19,1.11c-2.31,7.71-5.76,14.8-10.11,21.11
			c-1.05-1.35-2.13-2.64-3.28-3.88c-0.41-0.42-0.81-0.86-1.23-1.28c-0.43-0.41-0.84-0.84-1.27-1.25c-0.86-0.83-1.75-1.63-2.67-2.41
			c-1.84-1.57-3.79-3.04-5.85-4.45l-0.38-0.27l-0.37-0.24l-0.74-0.48c-0.5-0.31-0.96-0.65-1.5-0.95l-1.58-0.92
			c-0.52-0.31-1.1-0.59-1.64-0.88c-4.42-2.34-9.29-4.44-14.3-6.48c-1.25-0.52-2.52-1.02-3.8-1.53l-3.87-1.51
			c-2.6-1.03-5.24-2.02-7.98-3.15l-2.1-0.87c-0.71-0.3-1.49-0.64-2.21-0.97l-2.06-1.02c-0.69-0.34-1.37-0.67-2.04-1.04
			c-1.34-0.72-2.68-1.43-3.98-2.21l-1.95-1.14l-1.91-1.19c-5.09-3.19-9.9-6.66-14.52-10.33c-1.15-0.93-2.3-1.85-3.42-2.79
			c-1.11-0.97-2.26-1.87-3.36-2.85c-1.1-0.98-2.21-1.93-3.28-2.93c-1.08-0.99-2.16-1.97-3.22-2.99c-4.23-4.05-8.32-8.25-12.07-12.76
			c-3.75-4.48-7.18-9.12-10.64-13.64c-1.16-1.51-2.32-3-3.49-4.48c1.55-1.88,3.18-3.69,4.9-5.4
			C2300.64,44.49,2301.98,46.46,2303.34,48.39z"/>
		<path class="st6" d="M2322.03,86.82c3.69,2.34,7.29,4.86,10.73,7.65c1.73,1.38,3.39,2.86,5.03,4.36c0.8,0.78,1.62,1.53,2.4,2.34
			c0.4,0.41,0.78,0.78,1.18,1.21c0.4,0.43,0.82,0.87,1.19,1.31c3.06,3.5,5.55,7.08,7.98,10.62l7.02,10.47
			c2.32,3.41,4.65,6.74,7.11,9.82c2.45,3.07,5.03,5.92,7.72,8.11c0.34,0.26,0.67,0.55,1.01,0.78c0.34,0.24,0.65,0.48,1.08,0.76
			l1.2,0.81l1.22,0.78c1.64,1.03,3.32,2.01,5.04,2.93c3.44,1.84,7.01,3.48,10.68,4.93c2.04,0.8,4.1,1.54,6.19,2.24
			c-4.83,3.69-10.08,6.79-15.64,9.23c-2.74-1.36-5.44-2.84-8.08-4.43c-1.92-1.16-3.81-2.4-5.66-3.7l-1.38-0.99l-1.36-1.02
			c-0.43-0.32-0.95-0.73-1.44-1.13c-0.5-0.39-0.95-0.81-1.42-1.22c-3.67-3.3-6.54-6.89-9.17-10.49c-2.61-3.61-4.93-7.28-7.16-10.91
			l-6.51-10.76c-2.15-3.49-4.34-6.9-6.68-9.83c-0.29-0.38-0.59-0.71-0.88-1.06c-0.3-0.35-0.65-0.72-0.97-1.08
			c-0.64-0.74-1.34-1.43-2.01-2.15c-1.39-1.39-2.81-2.77-4.3-4.08c-2.97-2.64-6.14-5.09-9.44-7.39
			c-6.62-4.58-13.77-8.52-21.21-11.85c-5.16-2.3-10.47-4.31-15.87-6.01c0.01-0.05,0.02-0.1,0.04-0.14c0.65-2.5,1.41-4.93,2.29-7.31
			c5.72,1.52,11.35,3.38,16.86,5.54C2306.82,78.33,2314.63,82.17,2322.03,86.82z"/>
		<path class="st6" d="M2284.69,86.17c3.5,1.44,6.8,3.41,9.72,5.71c0.72,0.58,1.44,1.17,2.14,1.77l1.01,0.93l0.51,0.47
			c0.17,0.16,0.33,0.3,0.53,0.51c1.54,1.52,2.88,3.27,3.97,5.08c1.09,1.82,1.95,3.7,2.59,5.56c0.64,1.86,1.08,3.67,1.42,5.42
			c0.34,1.75,0.56,3.46,0.77,5.1c0.19,1.65,0.37,3.24,0.6,4.8c0.22,1.56,0.47,3.08,0.82,4.58c0.33,1.5,0.79,2.95,1.35,4.37
			c0.27,0.72,0.61,1.39,0.93,2.09c0.37,0.66,0.71,1.36,1.14,1.99c0.8,1.31,1.78,2.51,2.82,3.66c4.29,4.57,10.1,7.37,16.08,9.86
			c6.01,2.47,12.29,4.61,18.57,7.28c1.57,0.66,3.13,1.39,4.69,2.14c0.79,0.36,1.56,0.78,2.34,1.17c0.78,0.4,1.54,0.84,2.32,1.27
			c3.09,1.74,6.1,3.77,8.96,6.14c1.18,0.98,2.33,2.03,3.45,3.13c-4.23,1.08-8.58,1.8-13,2.12c-1.3-1.52-2.75-2.96-4.32-4.31
			c-0.6-0.48-1.18-0.99-1.79-1.46c-0.62-0.47-1.23-0.96-1.87-1.41c-1.28-0.91-2.6-1.78-3.96-2.62c-5.43-3.38-11.4-6.12-17.37-9.08
			c-1.49-0.75-2.99-1.49-4.47-2.3c-1.49-0.78-2.96-1.64-4.42-2.53c-1.45-0.91-2.89-1.88-4.25-2.94c-1.38-1.03-2.7-2.15-4.03-3.28
			c-2.59-2.33-5.06-4.9-7.22-7.77c-0.55-0.71-1.07-1.45-1.59-2.19c-0.49-0.75-1-1.5-1.47-2.27c-0.94-1.53-1.84-3.1-2.65-4.66
			c-0.81-1.56-1.57-3.12-2.31-4.64c-0.72-1.52-1.41-2.98-2.09-4.35c-0.68-1.38-1.33-2.67-2.01-3.83c-0.68-1.16-1.35-2.21-2.06-3.14
			c-0.71-0.93-1.42-1.79-2.24-2.57c-0.08-0.09-0.23-0.22-0.36-0.35l-0.4-0.38l-0.79-0.75c-0.52-0.5-1.07-0.96-1.59-1.46
			c-2.13-1.92-4.31-3.67-6.61-5.32c-0.44-0.32-0.9-0.63-1.35-0.94c-0.04-4.16,0.26-8.37,0.93-12.59
			C2280.36,84.62,2282.56,85.3,2284.69,86.17z"/>
		<path class="st6" d="M2420.61,78.31c-1.63-0.56-3.27-1.14-4.93-1.66c-3.32-1.06-6.69-2.06-10.11-2.98
			c-0.85-0.24-1.7-0.48-2.56-0.7l-1.28-0.35c-0.43-0.12-0.89-0.23-1.33-0.34c-1.79-0.45-3.58-0.93-5.36-1.47
			c-3.57-1.07-7.13-2.38-10.56-4.12c-1.7-0.89-3.38-1.87-4.95-3.04c-1.57-1.15-3.03-2.5-4.28-4c-1.25-1.51-2.27-3.2-2.98-4.96
			c-0.71-1.77-1.12-3.62-1.26-5.45c0.78,1.66,1.71,3.2,2.78,4.57c1.09,1.36,2.32,2.54,3.68,3.53c2.71,1.99,5.83,3.29,9.09,4.27
			c3.26,1,6.67,1.66,10.12,2.26c1.73,0.28,3.47,0.56,5.22,0.8l2.7,0.36c0.91,0.12,1.83,0.24,2.74,0.39
			c3.65,0.58,7.3,1.28,10.92,2.19c1.76,0.44,3.52,0.93,5.27,1.47c1.43,3.77,2.57,7.67,3.39,11.66c-0.49-0.21-0.99-0.41-1.49-0.62
			C2423.84,79.49,2422.22,78.91,2420.61,78.31z"/>
		
			<ellipse transform="matrix(0.5685 -0.8227 0.8227 0.5685 957.0126 1950.3376)" class="st5" cx="2337.79" cy="62.83" rx="10.18" ry="16.56"/>
		
			<ellipse transform="matrix(0.8326 -0.5538 0.5538 0.8326 319.1397 1309.4651)" class="st6" cx="2326.06" cy="126.72" rx="9.35" ry="14.8"/>
		<path class="st6" d="M2414.6,57.99c-1-0.12-1.99-0.28-2.99-0.42c-1-0.16-1.99-0.34-2.98-0.52c-0.99-0.2-1.98-0.41-2.96-0.62
			c-7.88-1.79-15.56-4.62-22.77-8.42c-7.21-3.81-13.93-8.6-19.75-14.3c-0.72-0.72-1.43-1.45-2.14-2.18
			c-0.69-0.75-1.37-1.5-2.04-2.27c-0.65-0.78-1.31-1.55-1.95-2.35l-1.84-2.43c-0.58-0.84-1.16-1.67-1.72-2.51
			c-0.35-0.56-0.69-1.12-1.04-1.68c1.91-0.01,3.84,0.06,5.76,0.19c0.2,0.16,0.41,0.32,0.62,0.47l2.32,1.73
			c0.79,0.56,1.55,1.13,2.32,1.69c0.79,0.54,1.57,1.1,2.34,1.65l2.35,1.62c6.28,4.26,12.72,8.13,19.37,11.63
			c6.65,3.52,13.51,6.68,20.56,9.68l5.32,2.23l0.57,0.23c1.62,2.23,3.11,4.55,4.48,6.94c-0.28-0.02-0.55-0.04-0.83-0.06
			L2414.6,57.99z"/>
		<path class="st6" d="M2401.97,149.18c-2.75-4.58-6.26-8.83-10.31-12.64c-2.03-1.91-4.19-3.7-6.45-5.41
			c-1.13-0.85-2.29-1.68-3.46-2.5l-1.76-1.23c-0.58-0.42-1.18-0.83-1.71-1.32c0.62,0.35,1.29,0.6,1.95,0.87l2,0.78
			c1.34,0.52,2.67,1.06,4,1.63c2.66,1.15,5.28,2.43,7.84,3.88c5.12,2.9,9.98,6.5,14.29,10.85c0.49,0.49,0.98,1,1.46,1.51
			c-1.97,2.25-4.06,4.38-6.27,6.37C2403.04,151.03,2402.53,150.1,2401.97,149.18z"/>
		<path class="st7" d="M2338.62,148.49c41.76,0,75.61-33.85,75.61-75.61c0-9.71-1.83-18.98-5.16-27.51
			c12.04,13.39,19.37,31.11,19.37,50.53c0,41.76-33.85,75.61-75.61,75.61c-32.06,0-59.45-19.95-70.45-48.11
			C2296.21,138.81,2316.28,148.49,2338.62,148.49z"/>
	</g>
	<g>
		<circle class="st2" cx="164.84" cy="326.64" r="63.05"/>
		<path class="st8" d="M192.71,279.39c0.84,2.72,1.84,5.45,2.85,8.25l1.55,4.18c0.52,1.38,1.03,2.76,1.56,4.12
			c1.08,2.71,2.16,5.37,3.38,7.94c1.22,2.55,2.5,5.07,3.95,7.52c5.61,9.61,12.94,18.43,20.82,26.86
			c3.27-17.51-0.86-36.29-12.93-51.24c-6.53-8.09-14.66-14.13-23.56-18.06c0.1,0.78,0.21,1.55,0.35,2.31
			C191.15,273.97,191.85,276.67,192.71,279.39z M168.82,276.41c0.98,7.16,3.08,14.3,5.91,21.29c1.4,3.51,3.01,6.98,4.73,10.44
			c1.72,3.46,3.55,6.91,5.47,10.36c1.93,3.43,3.9,6.91,5.9,10.37c2,3.45,4.01,6.86,6.05,10.24c4.11,6.73,8.39,13.28,13.17,19.39
			c1.65,2.1,3.35,4.15,5.11,6.15c3.87-5.12,6.88-10.73,9-16.62c-1.05-0.86-2.09-1.73-3.11-2.62c-2.35-2.02-4.61-4.14-6.85-6.3
			c-2.21-2.19-4.38-4.44-6.46-6.79c-4.15-4.7-8-9.77-11.3-15.25c-1.64-2.74-3.18-5.57-4.52-8.5c-1.33-2.92-2.52-5.85-3.55-8.81
			c-0.52-1.47-1.02-2.94-1.49-4.41l-1.35-4.41c-0.88-2.94-1.69-5.98-2.36-9.1c-0.65-3.13-1.13-6.37-1.26-9.68
			c-0.09-2.09-0.02-4.15,0.15-6.18c-4.48-1.27-9.07-2.04-13.71-2.3c-0.05,0.69-0.1,1.37-0.13,2.06
			C168.13,269.26,168.31,272.83,168.82,276.41z M208.98,371.67c-2.32-2.05-4.54-4.19-6.69-6.4c-5.84-6.01-11.02-12.54-15.85-19.21
			c-2.43-3.33-4.74-6.71-7.01-10.09c-2.26-3.38-4.51-6.76-6.69-10.25c-2.18-3.49-4.34-7.03-6.37-10.7
			c-2.01-3.68-3.94-7.45-5.67-11.36c-1.76-3.9-3.28-7.96-4.56-12.13c-1.28-4.17-2.31-8.46-2.97-12.85
			c-0.67-4.39-0.95-8.9-0.84-13.43c0.01-0.14,0.01-0.28,0.02-0.42c-3.59,0.72-7.14,1.76-10.61,3.12c-0.68,3.23-1.12,6.52-1.26,9.86
			c-0.17,4.28,0.17,8.63,1.11,12.92c0.94,4.28,2.49,8.51,4.74,12.44c-3.1-3.31-5.7-7.19-7.73-11.4c-2.03-4.21-3.51-8.75-4.44-13.44
			c-0.41-2.07-0.7-4.17-0.91-6.28c-2.78,1.61-5.47,3.46-8.05,5.54c-1.13,0.91-2.22,1.86-3.27,2.83
			c4.06,14.48,11.16,27.96,19.9,40.25c9.53,13.46,20.99,25.59,33.31,36.77c1.55,1.39,3.11,2.77,4.69,4.13
			c0.78,0.69,1.57,1.37,2.37,2.04c0.79,0.67,1.61,1.38,2.31,1.93c1.48,1.18,3.08,2.37,4.75,3.52c1.65,1.16,3.36,2.29,5.08,3.39
			c2.63,1.68,5.3,3.32,8,4.86c0.72-0.53,1.43-1.07,2.13-1.64C206.05,374.41,207.55,373.06,208.98,371.67z M181.05,380.62
			c-1.82-1.31-3.63-2.69-5.46-4.21c-0.96-0.79-1.74-1.49-2.56-2.22c-0.82-0.72-1.64-1.44-2.45-2.18c-1.62-1.46-3.21-2.96-4.8-4.47
			c-3.17-3.01-6.27-6.1-9.29-9.28c-3.01-3.18-5.94-6.45-8.78-9.81c-2.84-3.35-5.59-6.79-8.19-10.34c-2.61-3.55-5.12-7.18-7.47-10.92
			c-2.34-3.74-4.56-7.57-6.59-11.51c-2.03-3.94-3.87-7.98-5.51-12.11c-2.01-5.06-3.69-10.27-4.98-15.57
			c-2.5,3.22-4.66,6.65-6.46,10.22c1.01,6.96,2.34,13.84,4.1,20.58c1.77,6.71,3.94,13.28,6.68,19.54c1.34,3.15,2.86,6.18,4.49,9.18
			c1.62,3,3.38,5.94,5.25,8.83c1.85,2.9,3.79,5.74,5.82,8.55c2.02,2.81,4.1,5.59,6.23,8.34c4.01,5.18,8.19,10.25,12.43,15.41
			c4,0.73,8.07,1.07,12.15,1.02l-1.69-1.63c-0.87-0.81-1.64-1.63-2.39-2.46c-1.49-1.65-2.86-3.34-4.19-5.04
			c-5.29-6.8-10.06-13.82-14.82-20.86c-4.75-7.03-9.33-14.16-14.15-21.14c5.53,6.43,10.84,13.05,16.29,19.53
			c5.44,6.47,10.93,12.95,16.71,18.96c1.45,1.49,2.92,2.95,4.41,4.3c0.75,0.67,1.5,1.32,2.25,1.88c0.17,0.14,0.39,0.29,0.61,0.44
			l0.65,0.45l1.29,0.9c1.8,1.24,3.62,2.47,5.44,3.66c4.02-0.73,7.99-1.85,11.86-3.37c-0.46-0.3-0.93-0.59-1.39-0.9
			C184.7,383.2,182.87,381.94,181.05,380.62z M115.07,351.79c-1.47-3.36-2.83-6.81-3.96-10.31c-2.35-6.96-4.02-14.08-5.24-21.22
			c-0.64-3.79-1.15-7.58-1.54-11.37c-4.91,16.8-2.78,35.4,6.93,50.99c0.63,1,1.28,2,1.97,2.97c0.81,1.16,1.67,2.29,2.57,3.41
			c4.19,5.19,9.04,9.54,14.33,13.03c-3.63-5.7-7.13-11.54-10.29-17.6C118.13,358.47,116.53,355.17,115.07,351.79z"/>
		<g>
			<path class="st9" d="M183.18,281.84c0.67,3.13,1.48,6.17,2.36,9.1l1.35,4.41c0.47,1.47,0.97,2.94,1.49,4.41
				c1.03,2.95,2.22,5.89,3.55,8.81c1.34,2.92,2.88,5.75,4.52,8.5c3.31,5.48,7.15,10.54,11.3,15.25c2.08,2.35,4.25,4.6,6.46,6.79
				c2.24,2.16,4.49,4.29,6.85,6.3c1.02,0.89,2.06,1.76,3.11,2.62c1.15-3.19,2.03-6.46,2.65-9.78c-7.88-8.43-15.21-17.24-20.82-26.86
				c-1.45-2.45-2.73-4.96-3.95-7.52c-1.21-2.56-2.3-5.23-3.38-7.94c-0.54-1.36-1.05-2.73-1.56-4.12l-1.55-4.18
				c-1.01-2.8-2.01-5.53-2.85-8.25c-0.85-2.72-1.55-5.42-2.03-8.12c-0.14-0.76-0.25-1.53-0.35-2.31c-2.69-1.19-5.45-2.18-8.26-2.97
				c-0.16,2.03-0.23,4.08-0.15,6.18C182.05,275.46,182.53,278.7,183.18,281.84z"/>
			<path class="st9" d="M153.18,278.68c0.66,4.4,1.69,8.69,2.97,12.85c1.28,4.17,2.8,8.23,4.56,12.13
				c1.73,3.91,3.66,7.68,5.67,11.36c2.03,3.67,4.19,7.22,6.37,10.7c2.18,3.49,4.43,6.87,6.69,10.25c2.26,3.38,4.58,6.76,7.01,10.09
				c4.83,6.67,10.01,13.2,15.85,19.21c2.14,2.21,4.37,4.35,6.69,6.4c2.26-2.21,4.33-4.56,6.19-7.03c-1.76-2-3.46-4.06-5.11-6.15
				c-4.78-6.12-9.05-12.66-13.17-19.39c-2.04-3.38-4.05-6.79-6.05-10.24c-2-3.46-3.97-6.94-5.9-10.37
				c-1.92-3.44-3.75-6.9-5.47-10.36c-1.72-3.46-3.34-6.93-4.73-10.44c-2.83-6.99-4.93-14.13-5.91-21.29
				c-0.52-3.57-0.7-7.14-0.6-10.66c0.03-0.69,0.08-1.38,0.13-2.06c-5.34-0.3-10.72,0.08-16,1.14c-0.01,0.14-0.01,0.28-0.02,0.42
				C152.23,269.78,152.51,274.28,153.18,278.68z"/>
			<path class="st9" d="M194.34,372.47c-1.72-1.1-3.43-2.23-5.08-3.39c-1.66-1.15-3.27-2.34-4.75-3.52
				c-0.7-0.55-1.52-1.26-2.31-1.93c-0.8-0.67-1.59-1.35-2.37-2.04c-1.58-1.36-3.14-2.74-4.69-4.13
				c-12.32-11.18-23.79-23.31-33.31-36.77c-8.74-12.29-15.84-25.78-19.9-40.25c-2.56,2.37-4.88,4.91-6.96,7.59
				c1.29,5.3,2.97,10.51,4.98,15.57c1.65,4.12,3.48,8.17,5.51,12.11c2.03,3.94,4.25,7.77,6.59,11.51c2.36,3.74,4.86,7.37,7.47,10.92
				c2.6,3.55,5.34,7,8.19,10.34c2.84,3.35,5.76,6.62,8.78,9.81c3.02,3.17,6.12,6.27,9.29,9.28c1.59,1.5,3.18,3,4.8,4.47
				c0.81,0.73,1.62,1.46,2.45,2.18c0.82,0.72,1.61,1.43,2.56,2.22c1.83,1.51,3.63,2.9,5.46,4.21c1.82,1.32,3.65,2.58,5.51,3.81
				c0.46,0.3,0.93,0.6,1.39,0.9c5.03-1.98,9.87-4.64,14.4-8C199.65,375.79,196.97,374.15,194.34,372.47z"/>
			<path class="st9" d="M141.1,373.26c-2.14-2.75-4.22-5.53-6.23-8.34c-2.02-2.81-3.97-5.66-5.82-8.55
				c-1.86-2.89-3.62-5.83-5.25-8.83c-1.64-3-3.16-6.04-4.49-9.18c-2.75-6.26-4.92-12.83-6.68-19.54c-1.77-6.74-3.1-13.62-4.1-20.58
				c-1.73,3.43-3.13,7-4.19,10.66c0.4,3.79,0.9,7.59,1.54,11.37c1.22,7.14,2.89,14.25,5.24,21.22c1.13,3.49,2.5,6.94,3.96,10.31
				c1.46,3.38,3.06,6.68,4.76,9.91c3.17,6.06,6.66,11.9,10.29,17.6c7.17,4.73,15.15,7.88,23.4,9.38
				C149.29,383.51,145.11,378.44,141.1,373.26z"/>
			<path class="st9" d="M169.36,384.14l-0.65-0.45c-0.22-0.15-0.43-0.3-0.61-0.44c-0.74-0.56-1.5-1.21-2.25-1.88
				c-1.5-1.35-2.97-2.81-4.41-4.3c-5.78-6.01-11.27-12.48-16.71-18.96c-5.45-6.48-10.76-13.1-16.29-19.53
				c4.82,6.97,9.4,14.1,14.15,21.14c4.76,7.04,9.53,14.06,14.82,20.86c1.33,1.7,2.7,3.38,4.19,5.04c0.75,0.83,1.52,1.65,2.39,2.46
				l1.69,1.63c3.48-0.04,6.96-0.38,10.41-1c-1.82-1.19-3.63-2.41-5.44-3.66L169.36,384.14z"/>
			<path class="st9" d="M138.6,291.78c2.03,4.21,4.63,8.09,7.73,11.4c-2.25-3.94-3.8-8.16-4.74-12.44
				c-0.94-4.29-1.28-8.64-1.11-12.92c0.14-3.34,0.58-6.63,1.26-9.86c-2.9,1.14-5.74,2.51-8.49,4.11c0.2,2.11,0.5,4.21,0.91,6.28
				C135.09,283.03,136.57,287.57,138.6,291.78z"/>
		</g>
		<path class="st10" d="M194.84,382.13c-15.13,1.22-30.75-2.98-43.69-13.02c-27.52-21.34-32.54-60.94-11.2-88.47
			c5.56-7.17,12.36-12.81,19.86-16.85c-17.04,1.38-33.47,9.64-44.78,24.22c-21.34,27.52-16.32,67.13,11.2,88.47
			C146.58,392.26,173.54,393.62,194.84,382.13z"/>
		<path class="st11" d="M215.04,288.62c2.23,2.96,4.2,6.11,5.88,9.41c19.65,9.49,31.41,21.21,29.53,31.72
			c-1.5,8.34-11.32,14.41-26.18,17.59c-16.39,3.51-38.9,3.51-63.12-0.83c-24.22-4.34-45.33-12.17-59.48-21.16
			c-12.82-8.15-19.93-17.26-18.43-25.6c1.88-10.5,16.98-17.41,38.71-19.48c2.73-2.51,5.67-4.78,8.79-6.78
			c-41.47-0.38-72.74,10.88-76.16,29.96c-3.21,17.92,19,37.9,54.04,51.92c14.31,5.73,30.76,10.45,48.5,13.64
			c17.74,3.18,34.8,4.46,50.22,4.07c37.72-0.96,65.5-11.98,68.71-29.9C279.46,324.11,254.06,302.68,215.04,288.62z"/>
	</g>
	<path class="st12" d="M1559.67,184.35c-113.16-2.73-226.33-5.46-339.49-8.2c-19.82-0.48-43.98-2.77-51.7-14.46
		c-9.05-13.71,12.64-26.86,32.59-34.07c19.95-7.22,43.9-16.91,41.53-31.59c-1.15-7.14-8.86-13.39-17.97-17.78
		c-25.16-12.12-59.09-12.22-90.27-11.78c-110.01,1.56-220.02,3.11-330.03,4.67c-27.6,0.39-56.71,1.06-79.76,10.34
		c-23.05,9.28-36.28,30.41-20.16,44.9c6.83,6.14,17.62,10.1,24.99,15.98c7.38,5.88,9.87,15.71,0.28,19.8
		c-3.85,1.64-8.73,1.94-13.39,2.18c-126.46,6.61-253.85,7.76-381.01,3.44c-9.82-0.33-21.74-1.6-25.5-7.41
		c-2.78-4.3,0.46-9.1-0.42-13.69c-2.3-12.07-27.94-14.93-47.04-14.48c-76.35,1.8-152.7,3.6-229.05,5.39
		c-15.97,0.38-35.82,2.63-39.58,12.42c-2.46,6.41,3.32,14.35-3.43,19.32c-4.53,3.34-12.53,3.48-19.57,3.37
		c-61.17-0.97-122.34-1.93-183.51-2.9c-26.69-0.42-48.94-3.87-68.29,9.37c-13.84,9.47-21.16,23.07-17.88,36.13
		c0.91,3.6,2.81,7.42,7.47,9.62c4.42,2.08,10.26,2.23,15.7,2.29c76.12,0.86,152.23,1.72,228.35,2.58c15.62,0.18,34.6-0.9,40.99-9.83
		c2.79-3.9,2.52-8.75,6.91-11.98c5.09-3.75,14.17-3.76,22.07-3.44c62.97,2.59,125.75,8.25,187.61,16.91
		c29.24,4.09,67.69,6.32,80.43-10.53c2.98-3.94,4.39-8.84,10.3-11.07c5.37-2.02,12.29-0.98,18.41,0.12c21.7,3.9,43.4,7.8,65.1,11.71
		c6.17,1.11,12.74,2.38,16.86,5.52c8.43,6.41,1.64,16.08-7.37,21.88c-9,5.8-20.69,11.05-22.78,19.14
		c-4.25,16.5,31.29,24.71,57.76,25.89c92.4,4.13,185.05,4.77,277.29,1.92c13.08-0.4,26.73-0.98,37.83-5.23
		c11.1-4.25,18.58-13.37,13.23-21.04c-5.41-7.76-22.4-13.53-18.48-21.49c55.18-0.24,110.37-0.49,165.55-0.73
		c17.37-0.08,35.33-0.23,50.95-4.8c15.62-4.56,28.32-14.81,25.82-25.75c-1.44-6.31-7.46-13.28-1.92-18.49
		c3.86-3.63,11.63-4.45,18.57-4.9c24.78-1.62,49.7-2.6,74.66-2.92c5.78-0.08,12.25,0.05,16.45,2.64c6.59,4.06,3.36,11.23,7.67,16.35
		c5.05,6,17.78,6.88,28.39,6.97c135.14,1.1,270.23-0.82,404.91-5.74C1545.86,200.32,1567.88,193.3,1559.67,184.35z M677.34,218.32
		c-23.33,1.51-46.7,2.8-70.05,4.19c3.55,6.75,18.68,10.82,16.98,17.77c-1.38,5.68-12.78,7.29-21.85,7.6
		c-48.45,1.67-97.07,2.05-145.68,1.11c-4.55-0.09-10.16-0.64-11.76-3.36c-1.32-2.23,0.97-4.55,3.14-6.43
		c10.23-8.85,20.45-17.69,30.68-26.54c1.82-1.58,3.71-3.19,6.34-4.23c3.15-1.24,7.02-1.51,10.75-1.71
		c24.92-1.36,50.05-1.12,75.13-0.88c35.55,0.34,83.67-4.8,117.87,2.71C716.28,214.58,695.57,217.14,677.34,218.32z M1099.79,156.14
		c-9.93,3.41-21.58,4.24-32.92,4.94c-72.61,4.46-145.82,5.77-218.97,3.93c-6.19-0.16-14.31-1.45-14.72-5.37
		c-0.28-2.67,3.5-4.64,6.91-6.15l13.28-5.87c3.37-1.49,6.89-3.09,8.6-5.47c5.06-7.03-8.2-13.96-19.68-16.96
		c-11.48-3-25.81-7.6-24.85-15.36c0.99-8.04,17.27-10.5,29.99-10.85c55.14-1.53,110.4-1.95,165.67-1.24
		c32.72,0.42,89.23-1.12,105.55,22.68C1127.45,133.26,1118.82,149.61,1099.79,156.14z"/>
	<path class="st13" d="M2267.32,82.78c-5.9,0.28-12.7,1-15.87,5.24c-3.44,4.61-0.65,10.6-0.69,16.06
		c-0.08,9.07-8.57,16.84-18.38,20.38c-9.81,3.53-20.77,3.7-31.42,3.81c-64.46,0.68-128.93,1.36-193.39,2.04
		c-3.57,0.04-7.35,0.03-10.39-1.56c-3.26-1.7-4.99-4.84-7.11-7.55c-12.14-15.54-37.56-17.52-59.47-17.95
		c-82.76-1.62-165.52-3.23-248.28-4.85c-41.35-0.81-83.41-1.54-123.26,7.87c27.6,9.37,58.04,10.09,87.74,10.68
		c89.38,1.78,178.77,3.56,268.15,5.34c-14.91,8.3-10.22,29.64,4.23,38.51s33.65,8.94,51.46,8.8c51.65-0.43,103.31,0.25,154.92,2.05
		c8.7,0.3,19.72,2.25,21.3,9.54c2.03,9.39-13.31,13.56-24.52,13.77c-25.99,0.48-51.97,0.96-77.96,1.43
		c-21.87,0.4-45.66,1.39-62.28,13.5c4.48,7.41,16.03,8.75,25.8,9.13c89.44,3.44,179.1,2.86,268.47-1.73
		c7.43-0.38,15.49-1.01,20.96-5.31c8.61-6.77,5.99-19.66-2.29-26.74c-8.28-7.07-20.22-9.83-31.58-12.3
		c20.12-19.2,55.15-17.68,85.29-15.79c30.14,1.89,66.29,0.05,81.97-21.95c3.24-4.54,5.41-9.79,10.02-13.37
		c4.81-3.73,11.48-5.05,17.85-6.15c42.69-7.42,86.14-11.65,129.69-12.62c8.74-0.19,18.15-0.45,25.09-4.97
		c6.94-4.52,8.84-15.09,1.32-18.9c-2.78-1.41-6.15-1.59-9.37-1.7C2493.67,73.66,2378.98,77.51,2267.32,82.78z"/>
	<path class="st13" d="M506.49,395.58c12.83,0.53,27.89,2.25,33.73,10.48c6.35,8.95-0.82,18.68,27.15,20.42
		c96.95,6.05,194.32,8.55,291.62,7.47c16.22-0.18,12.65-6.41,13.13-12.74c0.97-12.83,23.79-17.39,41.6-18.48
		c101.09-6.18,86.93-3.17,98.75-14.91c8.26-8.2,145.85-16.99,159.84-18.23c82.83-7.36,179.83,7.57,263.04,12.18
		c-25.02,12.53-45.88,11.7-190.92,19.57c-27.59,1.5-131.78,5.83-170.93,14.9c-24.25,5.62-49.22,9.62-74.48,11.94
		c-10.35,0.95-24.25,4.97-21.54,12.21c2.07,5.51,12.19,6.5,20.13,6.39c41.1-0.58,82.21-1.17,123.31-1.75
		c31.8-0.45,1.24-16.77,38.45-20.06c43.89-3.88,88.31-4.63,132.41-2.24c-13.24,11.83-38.13,10.67-59.23,10.02
		c-21.1-0.65-47.51,3.15-52.87,17.83c-2.67,7.34-0.13,11.65-16.49,15.52c-88,20.83-184.06-3.15-276.32,2.9
		c-2.59,0.17-5.39,0.43-7.22,1.76c-2.68,1.93-2.07,5.07-2.4,7.78c-1.38,11.29-20,16.51-35.53,18.42
		c-48.38,5.95-97.87,4.26-146.89,2.55c-142.41-4.97-133.64-4.26-136.6-5.71c-4.67-2.28-3.21-7.93,1.31-10.35
		c6.72-3.6,4-2.52,161.21-3.12c8.8-0.03,18.21-0.2,25.43-3.81c7.23-3.61,10.37-12.05,3.8-16.26c-5.95-3.81-1.41-2.66-174.66-3.03
		c-48.22-0.1-30.49,9.62-70.25,1.69c-67.62-13.48-139.93-3.95-209.44-10.82c-6.57-0.65-10.76-1.68-11.48-8.18
		c-3.17-28.43,41.62-39.97,73.36-42.31C406.87,393.95,456.94,393.54,506.49,395.58z"/>
	<path class="st12" d="M2949.96,369.54c-4.61-7.46-11.8-12.89-18.83-18.14c-3.17-2.37-6.46-4.8-10.3-5.76
		c-3.84-0.96-7.78,1.45-10.09,4.67c-70.42,3.86-140.84,7.73-211.26,11.59c-3.91,0.21-7.97,0.4-11.59-1.11
		c-7.19-3.01-10.09-11.4-14.81-17.6c-11.97-15.73-34.89-16.63-54.65-16.1c-58.14,1.56-116.27,3.13-174.41,4.69
		c-9.7,0.26-20.38,0.92-27.33,7.68c-5.5,5.35-7.36,14.11-4.51,21.24c1.53,3.83,4.25,7.13,5.49,11.05
		c2.91,9.2-3.38,19.29-11.82,23.97c-8.44,4.68-18.47,5.25-28.11,5.72c-41.11,2-82.21,4-123.32,5.99c-8.83,0.43-18.88,1.48-24.11,8.6
		c-2.5,3.4-3.47,7.73-5.97,11.13c-5.71,7.78-16.96,8.21-26.61,8.07c-51.87-0.77-103.8,3.1-154.98,11.56
		c3.98,8.64,15.11,10.71,24.59,11.58c58.97,5.41,118.25,7.52,177.46,6.32c5.19-0.11,10.68-0.32,15.05-3.14
		c4.74-3.06,7.27-8.62,11.62-12.22c5.6-4.63,13.35-5.38,20.6-5.9c33.33-2.42,66.7-4.28,100.09-5.59c6.35-0.25,13.77,0,17.55,5.11
		c3.53,4.77,2.15,11.54,4.15,17.12c4.02,11.19,18.76,13.09,30.65,13.11c45.04,0.06,90.07,0.11,135.11,0.17
		c9,0.01,18.49-0.11,26.25-4.67c7.76-4.57,12.67-15.26,7.88-22.88c-3.63-5.77-11.62-8.25-13.94-14.67
		c-2.11-5.85,1.81-12.49,7.21-15.57c5.4-3.08,11.87-3.47,18.08-3.79c109.29-5.61,218.58-11.22,327.87-16.84
		C2957.69,387.59,2954.57,377,2949.96,369.54z M2603.67,385.08c-2.34,1.44-5.23,1.51-7.97,1.66c-13.97,0.72-27.8,4.18-40.47,10.12
		c-1.56,0.73-3.19,1.57-4.11,3.03c-3.88,6.12,7.84,14.65,3.15,20.18c-35.76,3.05-71.64,4.61-107.52,4.68
		c-4.14,0.01-9.76-1.48-9.46-5.61c0.09-10.17,18.88-13.72,16.66-23.65c-0.74-3.33-3.98-6.16-3.31-9.51c0.7-3.48,4.96-4.7,8.47-5.22
		c46.21-6.77,94.89-10.91,141.41-4.94c1.96,0.25,4.13,0.65,5.29,2.25C2607.42,380.3,2606.01,383.65,2603.67,385.08z"/>
</g>
<g id="redraw">
	<g>
		<defs>
			<rect id="SVGID_2_" x="0" y="0" width="2560" height="1400"/>
		</defs>
		<clipPath id="SVGID_3_">
			<use xlink:href="#SVGID_2_"  style="overflow:visible;"/>
		</clipPath>
		<path class="st14" d="M-29.16,819.56c18.76,0,80.97,6.94,92.87-5.97c18.97-20.57-12.31-68.12,15.32-85.37
			c9.4-5.87,33.71-3.96,45-4.48c15.61-0.72,35.6-2.74,50.87-0.06c18.82,3.31,22.8,10.29,25.84,28.04
			c3.95,23.03,0.52,23.7,23.5,23.84c5.79,0.04,16.46-1.9,21.5,0.55c7.8,3.79,6.65,11.02,10.28,13.56
			c13.13,9.19,29.71,4.09,45.93,3.91c35.79-0.39,77,3.67,113.83-1.96c20.96-3.2,17.97-10.35,25.95-25.89
			c11.97-23.34,31.13-16.28,114.81-20.07c20.59-0.93,26.3,7.79,40.82,12.04c30.39,8.9,24.96-13.56,33.48-31.91
			c5.54-11.94,1.95-11.03,17.29-14.08c11.62-2.31,25.23,0.71,37.09,0.1c39.31-2.03,137.55-23.04,121.34,2.3
			c-0.75,16.38,24.43,12.98,34.21,7.24c14.74-8.65,7.55-19.17,9.98-35.47c3.21-21.58,10.02-21.85,31.98-23.94
			c12.16-1.16,41.47-7.55,51.87-0.15c21.82,15.55-0.98,65.24,16.42,83.54c4.6,4.84,14.75,0.87,19.04,4.8
			c4.59,4.22,4.63,13.91,6.33,19.65c3.24,10.87,4.92,28.59,14.28,34.36c17.34,10.69,64.48-3.67,139.11,1.47
			c36.22,10.08,20.35,100.26,18.25,149.65C1146.92,981.43,58.55,985.94-9.21,997.4c-20.41-38.98-14.21-125.3-11.67-169.1
			C-17.01,828.95-13.12,829.36-29.16,819.56z"/>
		<path class="st15" d="M1836.37,911.61c-5.17-22.55-10.9-42.2-12.32-65.41c-0.84-13.73,6.39-16.46-12.32-22.49
			c-8.89-2.86,1.62-0.35-8.2,0.03c-25.46,0.97-31.38,9.03-40.38-11.9c-6.44-14.97,9.29-43.75,10.43-59.51
			c26.74-7.99,30.71-8.41,29.14-34.27c-1.09-17.94,45.25-60.96-10.29-55.52c-32.61-0.37-66.29-1.24-99.26-2.34
			c-18.74-0.63-40.29-6.53-52.24,8.97c-27.45,35.6,15.3,52.35,26.54,71.59c9.5,16.25-24.5,46.46-25.75,64.79
			c-29.22,3.17-20.14,4.92-34.23,21.25c-9.47,10.97-20.13,9.59-40.57,8.98c-26.13-0.78-114.97-11.21-137.26,1.5
			c-29.38,16.76-21.23,8.62-21,32.41c0.2,21.03-53.15,11.5-57.79,31.92c-9.98,43.9-7.99,67.86,23.94,67.84
			c51.71-0.04,475.79,16.44,468.81-9.98C1839.49,959.04,1835.29,918.76,1836.37,911.61z"/>
		<path class="st14" d="M1962.1,803.59c3.1-19.46-9.48-44.8,29.83-51.83c13.33-2.38,96.95,2.91,106.61-9.09
			c3.92-4.87-45.79-41.86-18.16-61.15c20.2-14.1,149.29-14.33,157.95-5.67c21.08,21.08-24.75,46.1-7.02,46.1
			c23.18,0,119.48-22.57,139.61-11.16c8.28,4.7,4.29,36.84,10.16,42.02c10.59,9.35,63.31,3.27,81.12,2.45
			c21.98-1.02,21.57-15.88,22.55-35.31c0.61-12.03-5.12-37.16,0.55-47.55c7-12.82,50.25-10.19,65.27-10.19
			c31.05,0,59.85-11.89,83.47,10.25c15.07,14.12,3.29,18.51,10.43,35.39c6.98,16.51,33.45,9.98,52.57,9.98
			c24.08,0,80.96-0.91,99.51,13.71c26.19,20.64,0.09,99.93,1.72,126.3c3.68,59.37,23.92,115.9,22.58,175.13
			c-110.33-2.9-942.62-25.97-942.56-39.55c0.05-10.33,19.42-156.07,23.94-165.83C1912.63,805.16,1969.8,844.7,1962.1,803.59z"/>
		<path class="st16" d="M-70.29,940.91c49.45-31.72,109.42-6.35,161.8-2.79c39.53,2.69,73.97,8.28,110.74-5.71
			c28.97-11.02,86.15-13.42,116.5-3.8c12.72,4.03,17.19,12.99,27.13,19.48c12.37,8.09,25.02,9.71,42.08,9.96
			c46.99,0.69,95.79-0.79,142.1-10.3c21.74-4.47,44.66-8.36,66.24-13.7c26.97-6.68,23.5-12.05,33.18-31.17
			c14.86-29.34,64.18-22.77,94.72-23.9c25.95-0.96,79.4-9.07,104.74,3.41c21.99,10.83,5.56,35.33,27.91,40.95
			c22.07,5.55,38.82-10.61,57.2-14.83c17.56-4.02,19.42,5.81,32.31,10.1c17.71,5.9,40.33,1.3,59.39,1.68
			c23.57,0.48,62.98,7.72,76.74-16.35c5.66-9.89,0.7-19.74,11.11-28.83c8.68-7.58,24.35-8.01,35.7-8.33
			c29.44-0.85,58.17-5.54,86.98-4.24c16.69,0.75,86.41-2.27,96.66,9.85c7.02,8.3-2.88,19.71,2.52,28.18
			c7.88,12.36,31.89,9.2,44.49,8.87c20.76-0.54,35.13-2.34,54.03,4.96c9.32,3.6,16.31,9,26.68,10.06
			c19.76,2.01,70.81,3.71,87.96-5.25c8.82-4.6,13.67-15.58,23.33-20.13c18.61-8.78,46.28-2.98,66.28-2.59
			c13.92,0.28,39.13-4.01,50.42,4.15c8.85-1.6,28.89-4.01,38.07-0.5c10.14,3.88,11.94,13.67,21.2,18.47
			c15.04,7.8,49.49,4.32,66.07,5.41c15.62,1.03,32.15,1.09,47.63,0.49c2.42-5.85-0.17-14.26,2.61-19.55
			c9.06-17.29,30.77-14.23,51.02-18.01c31.32-5.85,60.94-4.75,91.74-3.11c33.83,1.8,74.05-0.68,106.54,6.15
			c23.06,4.84,44.25,29,27.95,53.98c17.7,6.92,40.37,3.18,57.06,10.67c20.64-15.92,89.03,4.37,113.17,7.52
			c26.97,3.52,36.31-15.05,65.47-13.19c24.64,1.57,80.22-1.46,101.75,9.15c10.32,5.09,13.49,19.97,31.43,19.57
			c13.8-0.31,27.95-8.06,42.66-9.65c34.87-3.76,66.26,10.4,101.65,8.51c10.18,37.44,10.64,76.16,6.6,114.62
			c-2.54,24.14-4.67,72.72-27.29,87.34c-9.61,6.21-24.24,4.77-35.42,6.83c-93.22,17.2-181.89,60.86-273,86.27
			c-106.2,29.61-215.7,43.54-322.39,70.9c-63.9,16.39-126.63,34.27-191.77,45.42c-142.32,24.36-285.82,40.99-428.79,61.03
			c-101.78,14.27-201.45,39.15-303.2,53.29c-88.79,12.34-179.27,14.44-268.87,14.42c-101.06-0.02-204.7-13.1-305.44-22
			c-67.65-5.98-135.34-11.24-202.77-19.43c-83.91-10.2-178.29-14.88-259.53-42.16c-39.36-13.22-106.72-52.94-121.3-94.03
			c-13.38-37.7-5.99-91.35-5.03-130.73c1.19-48.72-8.48-101.73,0.98-150.05c4.86-24.82,3.23-54.98,11.53-78.78
			C-86.99,967.95-76.2,960.79-70.29,940.91z"/>
		<path class="st17" d="M2760.2,1076.06c-24.64-5.38-51.24-8.9-76.83-13.72c-76.63-14.43-151.69-10.67-229.69-13.03
			c-36.01-1.09-68.51-5.5-102.66-15.32c-25.48-7.33-45.96-15.44-73.2-15.61c-60.76-0.4-120.42-15-181.55-17.62
			c-47.05-2.02-93.11-3.21-140.46-3.06c-33.51,0.11-65.73-8.53-99.38-7.46c-70.24,2.24-137.52,3.93-207.27-1.44
			c-39.48-3.04-78.37-1.71-117.94-2.94c-36.94-1.15-74.32-10.35-111.23-8.88c-100.07,3.98-201.65,7.11-302.38,7.42
			c-51.57,0.16-104.55-5.5-155.71-2.66c-49.4,2.74-97.18,14.22-147.09,16.08c-83.85,3.13-168.25-1.77-251.84,1.68
			c-45.78,1.89-88.9,15.74-134.87,15.93c-105.4,0.43-214.65,5.99-318.11,21.82c-39.8,6.09-78.02,2.62-118.15,4.92
			c-35.31,2.02-73.17,8.83-106.79,17.64V1400h2860.64L2760.2,1076.06z"/>
		<path class="st18" d="M182.77,1083.93c6.68-0.32,13.69-0.56,19.71,2.36c6.02,2.92,10.54,10.1,8.16,16.35
			c-2.09,5.5-8.25,8.04-12.72,11.87c-4.47,3.83-6.68,12.21-1.39,14.79c1.53,0.75,3.31,0.74,5.02,0.72
			c153.08-2.21,305.08-44.08,457.57-30.53c7.35,0.65,15.6,1.94,19.9,7.93c7.56,10.54-3.48,24.76-15,30.73
			c-18.2,9.43-39.14,11.81-59.57,13.55c-90.61,7.72-182.39,6.11-271.51,24.19c-0.83,10.2,15.96,8.66,24.42,14.42
			c8.79,5.98,6.23,20.74-2.15,27.28c-8.38,6.54-19.79,7.19-30.41,7.57c-58.29,2.08-116.58,4.15-174.88,6.23
			c-31.63,1.13-69.69-1.11-85.4-28.59c-2.36-4.13-4.07-8.99-2.93-13.61c3.18-12.94,24.16-13.41,28.97-25.84
			c3.5-9.04-4.48-19.17-13.8-21.81c-9.32-2.64-19.22-0.1-28.66,2.07c-19.34,4.46-98.8,24.08-114.28,7.43
			c-12.23-13.16,11.27-24.11,23.25-30.77C23.13,1083.55,109.5,1087.48,182.77,1083.93z"/>
		<path class="st18" d="M651.5,1209.68c-3.63,0.5-7.72,1.31-9.67,4.41c-1.82,2.88-1.07,6.6-1.35,10
			c-1.28,15.81-22.16,20.09-38.02,20.39c-62.41,1.2-124.71,7.9-185.95,20c-3.76,0.74-7.81,1.67-10.3,4.58
			c-4.17,4.87-1.52,12.97,3.72,16.68c5.23,3.71,12.01,4.22,18.41,4.58c62.64,3.52,125.44,4.19,188.15,2.01
			c9.27-0.32,19.03-0.61,27.26,3.67c5.94,3.09,10.49,8.27,16.04,12c12.87,8.67,29.48,8.76,45,8.54
			c58.5-0.84,117.01-1.67,175.51-2.51c6.88-0.1,15.28-1.17,17.89-7.54c1.35-3.29,0.61-7,0.77-10.55
			c0.58-12.96,13.02-22.33,25.41-26.19c12.39-3.85,25.79-4.23,37.71-9.34s22.47-17.61,19.05-30.12
			c-3.34-12.23-17.83-17.67-30.51-18.14c-46.47-1.74-91.42-12.38-139.47-12.79C757.78,1198.9,704.37,1202.34,651.5,1209.68z"/>
		<path class="st18" d="M978.35,1081.06c-33.16,1.68-68.08,4.3-95.64,22.82c-6.62,4.45-13.33,11.79-10.92,19.39
			c2.57,8.1,13.08,9.8,21.57,10.03c103.54,2.81,207.21,1.03,310.59-5.35c27.6-1.7,55.36-3.73,82.84-0.73
			c5.34,0.58,11.13,1.6,14.7,5.61c5.42,6.1,2.65,16.38-3.58,21.65c-6.23,5.27-14.69,6.84-22.73,8.22
			c-33.22,5.7-66.43,11.41-99.65,17.11c-14.49,2.49-29.57,5.22-41.37,14s-19.03,25.56-12.27,38.62
			c7.89,15.25,28.54,17.17,45.71,17.04c198.68-1.45,397.3-11.32,595.14-29.57c5.69-0.53,12.62-2.02,14.23-7.51
			c1.08-3.69-0.92-7.58-3.32-10.59c-13.42-16.8-37.82-18.69-59.32-19.2c-91.87-2.21-183.74-4.43-275.61-6.64
			c2.26-16.28,18.52-27.06,34.43-31.15c15.91-4.1,32.83-3.75,48.4-8.98c15.58-5.23,30.45-18.83,29.16-35.21
			c-0.29-3.7-1.52-7.51-4.25-10.03c-3.52-3.25-8.7-3.74-13.48-4.06c-48.35-3.27-96.7-6.54-145.05-9.81
			c8.76-1.32,9.98-14.97,3.52-21.03c-6.46-6.06-16.22-6.46-25.07-6.53c-38.96-0.28-77.92-0.58-116.88-0.83
			c-13.14-0.09-24.82-2.27-35.37,6.09c-6.65,5.27-6.3,14.94-14.52,19.55c-22.65,12.7-80.81,2.14-107.1,2.8
			C1054.46,1077.7,1016.4,1079.14,978.35,1081.06z"/>
		<path class="st18" d="M2430.25,1140.09c-9.56-0.18-20.52,0.25-26.58,7.65c-3.68,4.5-4.61,10.57-6.93,15.9
			c-9.41,21.67-37.69,26.03-61.28,27.3c-124.59,6.74-249.18,13.49-373.77,20.23c-7.31,0.4-16.38,2.13-18.28,9.2
			c-1.45,5.4,2.48,10.81,6.92,14.22c12.74,9.8,29.99,10.66,46.06,11.03c40.66,0.93,81.32,1.27,121.99,1.02
			c-6.92,10.71,0.13,25.94,11.21,32.24c11.08,6.3,24.54,6.16,37.29,5.84c44.65-1.11,89.3-2.22,133.95-3.33
			c6.91-0.17,14.1-0.41,20.21-3.64c6.11-3.22,10.74-10.39,8.73-17c-1.47-4.83-6.06-10.03-3.01-14.05c1.49-1.97,4.2-2.44,6.65-2.73
			c66.96-7.99,137.74,9.77,200.66-14.5c33.07-12.76,66.54-61.16,22.13-84.36c-12.7-6.63-30.63-3.52-44.32-3.55
			C2484.67,1141.5,2457.45,1140.6,2430.25,1140.09z"/>
	</g>
	<ellipse class="st19" cx="1021.01" cy="1166.99" rx="42.9" ry="15.96"/>
	<ellipse class="st20" cx="446.37" cy="1047.61" rx="17.96" ry="4.99"/>
	<ellipse class="st19" cx="1737.63" cy="1279.06" rx="40.9" ry="12.97"/>
	<ellipse class="st20" cx="123" cy="1317.18" rx="59.2" ry="16.5"/>
	<ellipse class="st19" cx="950.61" cy="1151.15" rx="21.85" ry="5.2"/>
	<ellipse class="st20" cx="1815.78" cy="1067.23" rx="21.95" ry="5.99"/>
	<ellipse class="st20" cx="2127.7" cy="1352.55" rx="49.88" ry="9.98"/>
	<ellipse class="st19" cx="1823.09" cy="1250.79" rx="60.86" ry="15.96"/>
	<ellipse class="st20" cx="2057.2" cy="1335.26" rx="27.93" ry="5.99"/>
	<ellipse class="st19" cx="1518.15" cy="1341.58" rx="46.89" ry="12.97"/>
	<ellipse class="st20" cx="1740.62" cy="1084.52" rx="63.85" ry="15.96"/>
	<ellipse class="st19" cx="2109.08" cy="1103.48" rx="21.95" ry="4.99"/>
	<ellipse class="st19" cx="2069.51" cy="1129.75" rx="40.9" ry="9.98"/>
	<ellipse class="st19" cx="2492.83" cy="1361.53" rx="23.94" ry="6.98"/>
	<ellipse class="st20" cx="1233.83" cy="1312.98" rx="101.76" ry="16.96"/>
	<ellipse class="st20" cx="1328.61" cy="1336.59" rx="22.95" ry="5.99"/>
	<ellipse class="st20" cx="382.86" cy="1053.26" rx="32.92" ry="7.98"/>
	<linearGradient id="SVGID_4_" gradientUnits="userSpaceOnUse" x1="1975.8163" y1="651.4785" x2="1975.8163" y2="318.3932">
		<stop  offset="0" style="stop-color:#FFFFFF;stop-opacity:0.5"/>
		<stop  offset="1" style="stop-color:#FFFFFF;stop-opacity:0"/>
	</linearGradient>
	<path class="st21" d="M1831.97,646.85c4.86-0.52,9.94-1.23,13.88-4.13c13.95-10.27,1.1-34.07,9.42-49.26
		c10.2-18.62,42.12-10.39,55.87-26.57c7.29-8.58,6.66-22.1,0.43-31.48s-16.97-15-27.95-17.48c-3.56-0.81-7.39-1.42-10.09-3.88
		c-6.88-6.26-1.05-17.64,5.58-24.17c6.2-6.12,13.01-11.62,20.3-16.4c4.83-3.17,9.98-6.07,15.65-7.18
		c7.25-1.43,14.69,0.15,22.04,0.97c11.87,1.32,23.96,0.62,35.6-2.06c3.54-0.82,7.16-1.87,9.95-4.2c7.65-6.36,5.77-18.36,3.33-28.01
		c-2.44-9.65-3.93-21.82,4.06-27.76c7.72-5.73,20.13-1.86,27.06-8.52c5.32-5.11,4.61-13.8,7.94-20.38
		c10.67-21.1,51.26-7.6,61.23-29.04c2.8-6.03,2.35-13.89,7.41-18.2c2.23-1.9,5.15-2.71,7.97-3.47c19.28-5.17,39.6-10.09,58.97-5.29
		c19.37,4.8,37.02,22.7,34.41,42.49c-2.03,15.37-15.34,27.06-29.6,33.16c-14.26,6.1-29.91,8.06-44.68,12.79
		c-3.83,1.22-7.72,2.71-10.57,5.54c-6.55,6.48-5.39,17.41-2.02,25.99c3.36,8.58,8.51,16.87,8.52,26.09
		c0.01,11.12-7.81,21.11-17.51,26.54c-9.69,5.44-21.02,7.08-32.1,8c-39.4,3.28-78.97-1.29-118.29-5.34
		c-7.6-0.78-16.95-0.71-20.78,5.9c-3.71,6.4,0.61,14.57,6.02,19.61c5.42,5.04,12.25,9.07,15.31,15.81
		c4.81,10.62-2.21,23.34-11.85,29.88c-9.65,6.54-21.43,8.92-32.22,13.33s-21.56,12.15-23.85,23.58c-1.89,9.44,2.37,19.89-1.86,28.53
		c-3.23,6.59-10.49,10.1-17.44,12.46c-35.1,11.93-70.02,5.19-105.73,1.53C1781.41,649.36,1806.87,649.52,1831.97,646.85z"/>
	<linearGradient id="SVGID_5_" gradientUnits="userSpaceOnUse" x1="1537.6731" y1="656.5895" x2="1537.6731" y2="356.6247">
		<stop  offset="0" style="stop-color:#FFFFFF;stop-opacity:0.5"/>
		<stop  offset="1" style="stop-color:#FFFFFF;stop-opacity:0"/>
	</linearGradient>
	<path class="st22" d="M1481.4,356.68c9.24,0.3,18.66,1.73,26.83,6.06s14.98,11.94,16.6,21.04c2.34,13.12-6.26,25.79-16.35,34.49
		c-10.09,8.7-22.14,15.24-30.75,25.4c-2.72,3.21-5.14,6.97-5.39,11.17c-0.41,6.88,5.1,12.81,11.2,16
		c6.11,3.19,13.03,4.54,19.19,7.62c8.83,4.41,15.92,12.64,17.95,22.3c2.04,9.66-1.45,20.53-9.35,26.45
		c1.72,12.12,15.41,18.22,27.33,20.99c7.05,1.64,14.19,2.89,21.38,3.75c7.04,0.85,14.31,1.37,20.69,4.46
		c6.38,3.09,11.76,9.55,11.13,16.61c-1.13,12.79-19.38,17.9-22.1,30.44c-1.67,7.67,3.48,15.53,10.26,19.49
		c6.78,3.96,14.86,4.87,22.67,5.6c16.39,1.53,32.82,2.65,49.27,3.36c2.34,3.17-2.86,7.02-2.66,10.95c0.2,3.94,5.25,5.34,9.19,5.59
		c16.86,1.05,33.82,0.58,50.59-1.4c-23.7,6.74-48.4,9.96-73.04,9.51c-1.24-0.02-2.63-0.12-3.48-1.03c-0.63-0.69-0.79-1.67-1.02-2.57
		c-1.44-5.65-6.58-9.75-12.1-11.61s-11.47-1.88-17.3-1.98c-40.06-0.7-80.03-6.36-118.7-16.81c-4.15-1.12-9.19-3.46-9.02-7.76
		c0.07-1.74,1.06-3.3,2.14-4.66c11.41-14.49,32.46-15.36,50.52-19.1c6.66-1.38,14.22-4.27,16.07-10.82
		c2.23-7.94-5.52-15.13-13.05-18.49c-33.17-14.83-73.19,1.56-107.65-9.96c-1.85-0.62-3.79-1.4-4.92-2.99
		c-1.14-1.61-1.23-3.74-1.04-5.7c0.93-9.74,8.04-18.61,17.35-21.63c2.36-0.77,5.23-1.54,6-3.9c0.61-1.9-0.51-3.96-0.24-5.94
		c0.63-4.6,7.04-4.93,11.18-7.06c6.36-3.26,7.49-12.72,3.52-18.67s-11.41-8.71-18.54-9.23s-14.25,0.83-21.39,1.27
		c-13.84,0.86-27.87-1.75-40.48-7.52c-2.6-1.19-5.29-2.65-6.67-5.15c-2.4-4.32,0.05-9.73,3.08-13.63
		c16.03-20.59,45.03-24.08,70.08-31.39c4.76-1.39,10.17-3.69,11.35-8.51c1.14-4.64-2.3-9.09-5.79-12.34
		c-4.13-3.85-8.67-7.24-13.54-10.1c-11.53-6.78-19.79-19.23-2.75-24.01C1446.68,360.45,1463.54,356.1,1481.4,356.68z"/>
	<g>
		<path d="M1777.59,534.5c-3.95-11.7-9.84-27.04-13.54-43.93v0c-5.32-42-26.75-57.96-31.43-57.96l0,4.61v0l0,0l0-4.61
			c-4.68,0-26.13,15.92-31.53,57.91l0,0c-3.73,16.88-9.65,32.21-13.62,43.91c-6.82,20.09-45.72,44.79-45.75,79.22
			c0,1.67,0,4.15,0,4.15l1.85,0.19l1.09,8.72l27.57,4.4l-0.69,2.55c-0.37,1.37,0.2,2.76,1.31,3.51l-2.99,11.1
			c-3.67,0.46-6.51,3.58-6.51,7.37c0,0.16,0.01,0.31,0.02,0.46l-3.92,0c-1.92,0-3.48,1.55-3.48,3.48l0,5.14l28.73,0.02l0-5.14
			c0-1.92-1.55-3.48-3.47-3.48l-3.01,0c0.01-0.15,0.02-0.31,0.02-0.46c0-2.43-1.17-4.59-2.97-5.95l2.98-11.09
			c1.34-0.1,2.52-1.02,2.89-2.38l0.96-3.56l26.84,4.28l0.7,4.41c0.17,1.08,0.94,1.96,2,2.27c2.32,0.67,7.06,1.7,14.63,1.91
			c1.49,0.04,2.75-1.1,2.87-2.59c0.01-0.1,0.02-0.21,0.03-0.32c0.16,0.09,0.32,0.16,0.49,0.22l-0.01,10
			c-2.72,1.1-4.65,3.77-4.65,6.89c0,0.16,0.01,0.31,0.02,0.46l-3.47,0c-1.92,0-3.48,1.55-3.48,3.47l0,5.14l28.73,0.02l0-5.14
			c0-1.92-1.55-3.48-3.47-3.48l-3.47,0c0.01-0.15,0.02-0.31,0.02-0.46c0-3.12-1.92-5.79-4.64-6.9l0.01-10
			c0.17-0.06,0.34-0.14,0.49-0.22c0.01,0.1,0.02,0.22,0.03,0.32c0.12,1.49,1.37,2.63,2.87,2.59c7.57-0.19,12.31-1.22,14.63-1.89
			c1.05-0.3,1.83-1.18,2-2.26l0.71-4.41l26.85-4.24l0.95,3.56c0.36,1.37,1.55,2.29,2.89,2.39l2.96,11.09
			c-1.81,1.36-2.98,3.51-2.98,5.94c0,0.16,0.01,0.31,0.02,0.46l-3.01,0c-1.92,0-3.48,1.55-3.48,3.48l0,5.14l28.73,0.02l0-5.14
			c0-1.92-1.55-3.48-3.47-3.48l-3.92,0c0.01-0.15,0.02-0.31,0.02-0.46c0-3.79-2.83-6.92-6.5-7.38l-2.97-11.11
			c1.11-0.75,1.68-2.14,1.31-3.51l-0.68-2.55l27.57-4.35l1.1-8.72l1.85-0.18c0,0,0-2.48,0-4.15
			C1823.24,579.36,1784.37,554.6,1777.59,534.5z"/>
		<path class="st23" d="M1791.09,621.14l9.94-0.99l0.05-53.66c-3.37-4.06-6.78-7.94-9.93-11.67L1791.09,621.14z M1785.09,621.74
			l2.98-0.3l0.06-70.24c-1.04-1.27-2.04-2.53-2.98-3.76L1785.09,621.74z M1804.1,570.2l-0.04,49.65l2.98-0.3l0.04-45.52
			C1806.1,572.74,1805.11,571.46,1804.1,570.2z"/>
		<path class="st23" d="M1657.87,619.43l2.98,0.3l0.04-49.65c-1.01,1.26-2.01,2.54-2.99,3.83L1657.87,619.43z M1663.88,620.04
			l9.94,1.01l0.06-66.32c-3.16,3.72-6.57,7.6-9.95,11.65L1663.88,620.04z M1676.9,551.1l-0.06,70.24l2.98,0.3l0.06-74.31
			C1678.95,548.58,1677.95,549.83,1676.9,551.1z"/>
		<path class="st24" d="M1742.59,453.27c-2.72-1.5-5.09-2.07-9.99-2.07s-6.94,0.62-10,2.05c-4.14,1.95-5.96,5.35-5.96,7.94
			c0,3.97,2.64,3.56,6.39,2.2c3.02-1.09,5.56-1.82,9.56-1.81c4,0,6.54,0.74,9.56,1.83c3.75,1.36,6.39,1.78,6.39-2.19
			C1748.54,458.63,1746.61,455.48,1742.59,453.27z"/>
		
			<ellipse transform="matrix(0.0733 -0.9973 0.9973 0.0733 1094.1537 2163.8484)" class="st24" cx="1711.48" cy="493.14" rx="8.24" ry="3.03"/>
		
			<ellipse transform="matrix(8.006727e-03 -1 1 8.006727e-03 1175.9281 2226.8579)" class="st24" cx="1710.34" cy="520.74" rx="8.24" ry="3.03"/>
		
			<ellipse transform="matrix(0.9975 -0.0711 0.0711 0.9975 -34.6695 123.1017)" class="st24" cx="1710.86" cy="548.27" rx="3.03" ry="8.24"/>
		
			<ellipse transform="matrix(0.9974 -0.0716 0.0716 0.9974 -30.8228 126.8862)" class="st24" cx="1753.66" cy="493.18" rx="3.03" ry="8.24"/>
		
			<ellipse transform="matrix(1 -6.301802e-03 6.301802e-03 1 -3.247 11.0684)" class="st24" cx="1754.74" cy="520.78" rx="3.03" ry="8.24"/>
		
			<ellipse transform="matrix(0.0728 -0.9973 0.9973 0.0728 1079.5496 2257.8818)" class="st24" cx="1754.18" cy="548.31" rx="8.24" ry="3.03"/>
		<path class="st25" d="M1721.86,440.01c3.29,1.16,6.92,1.81,10.75,1.81l0.01-9.22C1730.85,432.61,1726.67,434.89,1721.86,440.01z"
			/>
		<path class="st25" d="M1743.36,440.03c-4.79-5.13-8.97-7.42-10.74-7.42l0,0l-0.01,9.22h0
			C1736.43,441.83,1740.07,441.19,1743.36,440.03z"/>
	</g>
</g>
<g id="trees">
	<g>
		<path class="st26" d="M786.29,1088.75c-0.6,18.7,7.04,52.89,7.04,52.89s14.88-29.96,15.69-40.42"/>
		<circle class="st27" cx="786.09" cy="1088.75" r="6.64"/>
		<circle class="st28" cx="808.81" cy="1101.22" r="10.26"/>
	</g>
	<g>
		<path class="st29" d="M1530.04,1200.57c-0.73,55.91-3.63,91.49-3.63,91.49"/>
		<path class="st29" d="M1505.35,1237.23c1.82,31.95,20.69,55.55,20.69,55.55s34.49-34.85,40.3-53"/>
		<circle class="st30" cx="1504.26" cy="1236.51" r="10.53"/>
		<circle class="st31" cx="1529.68" cy="1200.2" r="18.15"/>
		<circle class="st30" cx="1566.34" cy="1239.41" r="13.8"/>
	</g>
	<g>
		<path class="st32" d="M2365.95,1207.23c-54.46,101.54-38.58,131.92-38.58,131.92s48.96-43.38,58.09-61.74"/>
		<circle class="st33" cx="2370.58" cy="1204.97" r="20.17"/>
		<circle class="st34" cx="2385.1" cy="1277.26" r="16.81"/>
	</g>
	<g>
		<path class="st32" d="M214.84,1223.44c-0.88,67.66-4.39,110.72-4.39,110.72"/>
		<path class="st32" d="M184.96,1267.82c2.2,38.66,25.04,67.22,25.04,67.22s41.74-50.16,48.77-72.13"/>
		<circle class="st33" cx="183.64" cy="1266.94" r="12.74"/>
		<circle class="st34" cx="214.4" cy="1196.39" r="21.97"/>
		<circle class="st33" cx="258.77" cy="1259.81" r="16.7"/>
	</g>
	<g>
		<g>
			<path class="st26" d="M1728.26,982.05c0,0-18.22,29.95-18.4,60.26"/>
			<circle class="st27" cx="1728.08" cy="981.39" r="12.48"/>
		</g>
		<g>
			<path class="st26" d="M1688.26,997.34c0,0,11.17,10.89,10.66,47.07"/>
			<circle class="st28" cx="1687.89" cy="996.97" r="9.56"/>
		</g>
	</g>
	<g>
		<path class="st26" d="M1193.25,1016.55c0,0-11.89,25.96-9.15,50.49c0,0,3.57-12.64,16.25-19.99"/>
		<circle class="st28" cx="1193.04" cy="1016.04" r="10.17"/>
	</g>
	<g>
		<path class="st35" d="M1900.56,1126.97c0,0,21.32,20.78,20.35,89.82l-20.62-26.63"/>
		<circle class="st36" cx="1899.85" cy="1126.27" r="18.24"/>
	</g>
	<g>
		<circle class="st37" cx="2286.45" cy="848.74" r="55.42"/>
		<circle class="st38" cx="2430.72" cy="904.77" r="29.19"/>
		<circle class="st38" cx="2153.95" cy="944.79" r="49.85"/>
		<circle class="st37" cx="2398.38" cy="1090.77" r="49.7"/>
		<circle class="st38" cx="2204.2" cy="1173.05" r="26.83"/>
		<linearGradient id="SVGID_6_" gradientUnits="userSpaceOnUse" x1="2286.4541" y1="1339.2861" x2="2286.4541" y2="904.1675">
			<stop  offset="0" style="stop-color:#336D6E"/>
			<stop  offset="0.0277" style="stop-color:#4B7879"/>
			<stop  offset="0.1242" style="stop-color:#8DA3A6"/>
			<stop  offset="0.204" style="stop-color:#C3CDCE"/>
			<stop  offset="0.263" style="stop-color:#EAECEC"/>
			<stop  offset="0.2947" style="stop-color:#FFFFFF"/>
		</linearGradient>
		<line class="st39" x1="2286.45" y1="904.17" x2="2286.45" y2="1339.29"/>
		<line class="st40" x1="2231.03" y1="1173.05" x2="2286.45" y2="1173.05"/>
		<line class="st40" x1="2348.68" y1="1090.77" x2="2286.45" y2="1090.77"/>
		<path class="st40" d="M2153.95,994.65v13.93c0,17.94,14.55,32.49,32.49,32.49h100.01"/>
		<path class="st40" d="M2286.45,981.32h111.77c17.94,0,32.49-14.55,32.49-32.49v-14.87"/>
	</g>
	<g>
		<circle class="st41" cx="948.45" cy="950.89" r="26.28"/>
		<circle class="st42" cx="1016.83" cy="817.17" r="29.45"/>
		<circle class="st41" cx="1016.83" cy="893.33" r="19.97"/>
		<line class="st43" x1="1016.83" y1="846.62" x2="1016.83" y2="873.36"/>
		<linearGradient id="SVGID_7_" gradientUnits="userSpaceOnUse" x1="1016.8289" y1="1071.7075" x2="1016.8289" y2="913.3035">
			<stop  offset="0" style="stop-color:#336D6E"/>
			<stop  offset="0.0331" style="stop-color:#4B7879"/>
			<stop  offset="0.1485" style="stop-color:#8DA3A6"/>
			<stop  offset="0.2439" style="stop-color:#C3CDCE"/>
			<stop  offset="0.3145" style="stop-color:#EAECEC"/>
			<stop  offset="0.3524" style="stop-color:#FFFFFF"/>
		</linearGradient>
		<line class="st44" x1="1016.83" y1="913.3" x2="1016.83" y2="1071.71"/>
		<line class="st43" x1="974.74" y1="950.89" x2="1016.83" y2="950.89"/>
		<circle class="st42" cx="1081.54" cy="930.04" r="22.62"/>
		<path class="st43" d="M1081.54,952.66v24.72c0,6.7-5.43,12.13-12.13,12.13h-52.58"/>
	</g>
	<g>
		<circle class="st45" cx="366.06" cy="811.95" r="53.98"/>
		<circle class="st46" cx="209.88" cy="856.38" r="58.48"/>
		<circle class="st45" cx="120.12" cy="1012.29" r="41.74"/>
		<circle class="st45" cx="502.45" cy="949.87" r="56.25"/>
		<circle class="st46" cx="457.46" cy="1146.45" r="49.04"/>
		<linearGradient id="SVGID_8_" gradientUnits="userSpaceOnUse" x1="259.0978" y1="1333.4166" x2="259.0978" y2="914.8635">
			<stop  offset="0" style="stop-color:#336D6E"/>
			<stop  offset="0.0331" style="stop-color:#4B7879"/>
			<stop  offset="0.1485" style="stop-color:#8DA3A6"/>
			<stop  offset="0.2439" style="stop-color:#C3CDCE"/>
			<stop  offset="0.3145" style="stop-color:#EAECEC"/>
			<stop  offset="0.3524" style="stop-color:#FFFFFF"/>
		</linearGradient>
		<path class="st47" d="M209.88,914.86v28.7c0,14.91,12.08,26.99,26.99,26.99h71.45v362.86"/>
		<path class="st48" d="M366.06,867.73V985.3c0,14.91-12.08,26.99-26.99,26.99h-30.75"/>
		<path class="st48" d="M120.12,1054.03v29.44c0,14.91,12.08,26.99,26.99,26.99h161.21"/>
		<line class="st48" x1="446.2" y1="949.87" x2="366.06" y2="949.87"/>
		<line class="st48" x1="408.42" y1="1146.45" x2="309.39" y2="1146.45"/>
	</g>
	<g>
		<circle class="st49" cx="739.43" cy="792.06" r="39.57"/>
		<circle class="st50" cx="803.62" cy="953.72" r="25.45"/>
		<circle class="st50" cx="655.17" cy="848.31" r="31.7"/>
		<circle class="st50" cx="831.26" cy="864.7" r="31.61"/>
		<circle class="st49" cx="663.64" cy="975.62" r="26.77"/>
		<linearGradient id="SVGID_9_" gradientUnits="userSpaceOnUse" x1="739.4286" y1="1172.944" x2="739.4286" y2="836.2564">
			<stop  offset="0" style="stop-color:#336D6E"/>
			<stop  offset="0.0331" style="stop-color:#4B7879"/>
			<stop  offset="0.1485" style="stop-color:#8DA3A6"/>
			<stop  offset="0.2439" style="stop-color:#C3CDCE"/>
			<stop  offset="0.3145" style="stop-color:#EAECEC"/>
			<stop  offset="0.3524" style="stop-color:#FFFFFF"/>
		</linearGradient>
		<line class="st51" x1="739.43" y1="836.26" x2="739.43" y2="1172.94"/>
		<line class="st52" x1="799.66" y1="864.7" x2="739.43" y2="864.7"/>
		<path class="st52" d="M655.17,880.02v8.86c0,11.41,9.25,20.66,20.66,20.66h63.6"/>
		<path class="st52" d="M739.43,1009.29h43.53c11.41,0,20.66-9.25,20.66-20.66v-9.46"/>
		<path class="st52" d="M663.64,1002.39v18.68c0,11.41,9.25,20.66,20.66,20.66h55.12"/>
	</g>
	<path d="M162.15,646.91h-17.59c-1.58,7.22-8.03,12.65-15.72,12.65c-8.87,0-16.09-7.22-16.09-16.09c0-8.87,7.22-16.09,16.09-16.09
		c7.69,0,14.13,5.42,15.72,12.65h17.59v-6.66c-8.99-1.63-15.83-9.51-15.83-18.96c0-10.63,8.65-19.28,19.28-19.28
		c10.63,0,19.28,8.65,19.28,19.28c0,9.45-6.84,17.33-15.83,18.96v24.6h22c2.66,0,4.82-2.16,4.82-4.82v-0.47
		c-7.24-1.58-12.68-8.04-12.68-15.75c0-8.89,7.24-16.13,16.13-16.13c8.89,0,16.13,7.24,16.13,16.13c0,7.71-5.44,14.17-12.68,15.75
		v0.47c0,6.46-5.25,11.71-11.71,11.71h-22v46h18.61c2.66,0,4.82-2.16,4.82-4.82v-4.46c-6.15-1.54-10.71-7.11-10.71-13.73
		c0-7.81,6.35-14.15,14.15-14.15c7.81,0,14.16,6.35,14.16,14.15c0,6.62-4.57,12.19-10.71,13.73v4.46c0,6.46-5.25,11.71-11.71,11.71
		h-18.61v25.05c0,1.9-1.54,3.44-3.44,3.44c-1.9,0-3.44-1.54-3.44-3.44v-38.03h-13.97c-6.46,0-11.71-5.25-11.71-11.71v-0.78
		c-5.85-1.53-10.18-6.86-10.18-13.18c0-7.51,6.11-13.63,13.63-13.63c7.51,0,13.63,6.11,13.63,13.63c0,6.32-4.33,11.65-10.18,13.18
		v0.78c0,2.66,2.16,4.82,4.82,4.82h13.97V646.91z"/>
	<path d="M776.97,649.47h-3.4c-4.9,0-8.88-3.98-8.88-8.88v-4.39h-11.09c-1.45,6.82-7.52,11.96-14.77,11.96
		c-8.32,0-15.1-6.77-15.1-15.1s6.77-15.1,15.1-15.1c7.25,0,13.32,5.13,14.77,11.96h11.09v-11.9c-6.55-1.44-11.47-7.29-11.47-14.27
		c0-8.06,6.56-14.61,14.62-14.61c8.06,0,14.61,6.56,14.61,14.61c0,6.98-4.92,12.83-11.47,14.27v22.58c0,1.43,1.17,2.6,2.6,2.6h3.4
		v-5.73c0-1.73,1.41-3.14,3.14-3.14h15.19c1.43,0,2.6-1.16,2.6-2.6v-3.28c-7.09-1.46-12.43-7.74-12.43-15.25
		c0-8.59,6.99-15.57,15.57-15.57s15.57,6.99,15.57,15.57c0,7.51-5.35,13.8-12.43,15.25v3.28c0,4.89-3.98,8.88-8.88,8.88h-12.05
		v23.46h31.13c1.43,0,2.6-1.16,2.6-2.6v-3.54c-5.11-1.38-8.87-6.06-8.87-11.59c0-6.62,5.39-12.01,12.01-12.01
		s12.01,5.39,12.01,12.01c0,5.54-3.77,10.21-8.87,11.59v3.54c0,4.89-3.98,8.88-8.88,8.88h-31.13v37.43c0,1.73-1.41,3.14-3.14,3.14
		c-1.73,0-3.14-1.41-3.14-3.14v-29.78H761.6c-1.42,5.97-6.79,10.42-13.19,10.42c-7.48,0-13.56-6.08-13.56-13.56
		c0-7.48,6.08-13.56,13.56-13.56c6.4,0,11.77,4.45,13.19,10.42h15.37V649.47z"/>
	<path d="M1074.46,758.09c0-6.36,5.17-11.53,11.53-11.53s11.53,5.17,11.53,11.53c0,5.38-3.7,9.91-8.7,11.17v7.02
		c0,1.01,0.82,1.83,1.83,1.83h17.38v-24.02c-4.42-1.24-7.68-5.3-7.68-10.12c0-4.81,3.25-8.88,7.68-10.12v-5.29
		c-6.45-1.32-11.32-7.03-11.32-13.87c0-7.8,6.35-14.15,14.15-14.15s14.15,6.35,14.15,14.15c0,6.83-4.87,12.55-11.32,13.87v5.29
		c4.42,1.24,7.68,5.31,7.68,10.12c0,4.81-3.25,8.88-7.68,10.12v9.18h10.84c1.3-5.78,6.46-10.11,12.62-10.11
		c7.13,0,12.94,5.8,12.94,12.94c0,7.13-5.8,12.94-12.94,12.94c-6.16,0-11.33-4.33-12.62-10.11h-10.84v41.31
		c0,1.56-1.27,2.83-2.83,2.83s-2.83-1.27-2.83-2.83v-26.47h-17.38c-4.13,0-7.5-3.36-7.5-7.5v-7.02
		C1078.17,767.99,1074.46,763.47,1074.46,758.09z"/>
	<path d="M2145.84,605.76c7.13,0,13.12,4.98,14.68,11.64h8.08v-18.74h-22.73c-6.09,0-11.05-4.96-11.05-11.05v-0.63
		c-3.98-1.42-6.83-5.22-6.83-9.68c0-5.67,4.61-10.28,10.28-10.28c5.67,0,10.28,4.61,10.28,10.28c0,4.46-2.86,8.26-6.83,9.68v0.63
		c0,2.3,1.87,4.16,4.16,4.16h22.73v-11.54c-7.41-1.59-12.98-8.18-12.98-16.05c0-9.05,7.37-16.42,16.42-16.42
		c9.05,0,16.42,7.37,16.42,16.42c0,7.87-5.57,14.47-12.98,16.05v25.53h19.97c2.3,0,4.16-1.87,4.16-4.16v-0.22
		c-6.68-1.56-11.67-7.57-11.67-14.72c0-8.34,6.78-15.12,15.12-15.12c8.34,0,15.12,6.78,15.12,15.12c0,7.15-4.99,13.15-11.67,14.72
		v0.22c0,6.09-4.96,11.05-11.05,11.05h-19.97v24.01h6.72c1.39-3.67,4.94-6.28,9.09-6.28c5.36,0,9.73,4.36,9.73,9.73
		s-4.36,9.73-9.73,9.73c-4.15,0-7.7-2.61-9.09-6.28h-6.72v35.48c0,1.9-1.54,3.44-3.44,3.44s-3.44-1.54-3.44-3.44v-54.74h-8.08
		c-1.56,6.66-7.55,11.64-14.68,11.64c-8.32,0-15.08-6.77-15.08-15.08S2137.53,605.76,2145.84,605.76z"/>
	<g>
		<circle class="st53" cx="1956.26" cy="1049.92" r="24.29"/>
		<circle class="st54" cx="1873.27" cy="979.08" r="32.39"/>
		<circle class="st54" cx="2011.95" cy="908.71" r="49.19"/>
		<linearGradient id="SVGID_10_" gradientUnits="userSpaceOnUse" x1="1956.2578" y1="1213.1974" x2="1956.2578" y2="1074.2128">
			<stop  offset="0" style="stop-color:#336D6E"/>
			<stop  offset="0.0385" style="stop-color:#4B7879"/>
			<stop  offset="0.1725" style="stop-color:#8DA3A6"/>
			<stop  offset="0.2833" style="stop-color:#C3CDCE"/>
			<stop  offset="0.3653" style="stop-color:#EAECEC"/>
			<stop  offset="0.4094" style="stop-color:#FFFFFF"/>
		</linearGradient>
		<line class="st55" x1="1956.26" y1="1074.21" x2="1956.26" y2="1213.2"/>
		<path class="st56" d="M1873.27,1011.46v23.24c0,8.4,6.81,15.22,15.22,15.22h43.48"/>
		<path class="st56" d="M2011.95,957.82v76.88c0,8.4-6.81,15.22-15.22,15.22h-16.18"/>
	</g>
	<g>
		<circle class="st46" cx="1363.1" cy="1042.59" r="44.24"/>
		<circle class="st45" cx="1482.48" cy="936.78" r="53.72"/>
		<circle class="st45" cx="1578.94" cy="1056.83" r="31.6"/>
		<linearGradient id="SVGID_11_" gradientUnits="userSpaceOnUse" x1="1462.1823" y1="1301.4838" x2="1462.1823" y2="990.5014">
			<stop  offset="0" style="stop-color:#336D6E"/>
			<stop  offset="0.0269" style="stop-color:#4B7879"/>
			<stop  offset="0.1205" style="stop-color:#8DA3A6"/>
			<stop  offset="0.198" style="stop-color:#C3CDCE"/>
			<stop  offset="0.2552" style="stop-color:#EAECEC"/>
			<stop  offset="0.286" style="stop-color:#FFFFFF"/>
		</linearGradient>
		<polyline class="st57" points="1482.48,990.5 1482.48,1124.36 1441.89,1124.36 1441.89,1301.48 		"/>
		<polyline class="st48" points="1363.1,1086.83 1363.1,1184.27 1441.89,1184.27 		"/>
		<line class="st48" x1="1547.34" y1="1056.83" x2="1482.48" y2="1056.83"/>
	</g>
	<path d="M1490.21,726.56c0-11.4-9.27-20.67-20.67-20.67c-11.4,0-20.67,9.27-20.67,20.67c0,10.41,7.74,19.05,17.77,20.46v25.06
		c0,1.44-1.17,2.61-2.61,2.61h-3.32c-1.29-5.04-5.87-8.78-11.31-8.78c-5.44,0-10.02,3.74-11.31,8.78h-13.18
		c-1.44,0-2.61-1.17-2.61-2.61v-5.79c6.67-1.35,11.7-7.25,11.7-14.31c0-8.05-6.55-14.6-14.6-14.6s-14.6,6.55-14.6,14.6
		c0,7.06,5.04,12.96,11.7,14.31v5.79c0,4.63,3.76,8.39,8.39,8.39h13.18c1.05,4.11,4.3,7.36,8.41,8.41v47.69
		c0,1.6,1.3,2.89,2.89,2.89s2.89-1.3,2.89-2.89v-47.69c4.11-1.05,7.36-4.3,8.41-8.41h3.32c4.63,0,8.39-3.76,8.39-8.39v-25.06
		C1482.47,745.61,1490.21,736.97,1490.21,726.56z"/>
	<path d="M2305.57,653.59c-4.34,0-8.02,2.9-9.19,6.87h-9.06v-9.24c6.64-1.27,11.68-7.12,11.68-14.13c0-7.94-6.46-14.39-14.39-14.39
		c-7.94,0-14.39,6.46-14.39,14.39c0,7.01,5.03,12.86,11.68,14.13v23.92h-6.11c-1.5,0-2.72,1.22-2.72,2.72v10.3h-11.69v-16.05
		c5.5-1.24,9.62-6.16,9.62-12.03c0-6.8-5.53-12.33-12.33-12.33s-12.33,5.53-12.33,12.33c0,5.87,4.12,10.79,9.62,12.03v18.77
		c0,1.5,1.22,2.72,2.72,2.72h14.41v22.76c0,1.5,1.22,2.72,2.72,2.72c1.5,0,2.72-1.22,2.72-2.72v-35.78h6.11
		c1.5,0,2.72-1.22,2.72-2.72V665.9h9.06c1.17,3.97,4.85,6.87,9.19,6.87c5.29,0,9.58-4.3,9.58-9.58
		C2315.16,657.89,2310.86,653.59,2305.57,653.59z"/>
	<path d="M2501.65,604.57h12.33c1.11,5.06,5.63,8.86,11.02,8.86c6.22,0,11.28-5.06,11.28-11.28c0-6.22-5.06-11.28-11.28-11.28
		c-5.39,0-9.91,3.8-11.02,8.86h-12.33v-4.67c6.3-1.14,11.1-6.67,11.1-13.29c0-7.45-6.06-13.51-13.51-13.51
		c-7.45,0-13.51,6.06-13.51,13.51c0,6.63,4.8,12.15,11.1,13.29v17.24h-15.42c-1.86,0-3.38-1.52-3.38-3.38v-0.33
		c5.08-1.11,8.89-5.64,8.89-11.04c0-6.23-5.07-11.31-11.3-11.31c-6.23,0-11.31,5.07-11.31,11.31c0,5.4,3.81,9.93,8.89,11.04v0.33
		c0,4.53,3.68,8.21,8.21,8.21h15.42v32.24h-13.05c-1.86,0-3.38-1.52-3.38-3.38v-3.12c4.31-1.08,7.51-4.99,7.51-9.62
		c0-5.47-4.45-9.92-9.92-9.92c-5.47,0-9.92,4.45-9.92,9.92c0,4.64,3.2,8.54,7.51,9.62v3.12c0,4.53,3.68,8.21,8.21,8.21h13.05v17.56
		c0,1.33,1.08,2.41,2.41,2.41c1.33,0,2.41-1.08,2.41-2.41v-26.66h9.79c4.53,0,8.21-3.68,8.21-8.21v-0.55
		c4.1-1.07,7.14-4.81,7.14-9.24c0-5.27-4.28-9.55-9.55-9.55s-9.55,4.28-9.55,9.55c0,4.43,3.04,8.17,7.14,9.24v0.55
		c0,1.86-1.52,3.38-3.38,3.38h-9.79V604.57z"/>
	<path d="M923.3,592.87h4.07c5.87,0,10.64-4.77,10.64-10.64v-5.26h13.29c1.74,8.18,9.01,14.33,17.7,14.33
		c9.98,0,18.09-8.12,18.09-18.09s-8.12-18.09-18.09-18.09c-8.69,0-15.96,6.15-17.7,14.33H938v-14.27
		c7.85-1.73,13.75-8.74,13.75-17.1c0-9.66-7.86-17.52-17.52-17.52s-17.52,7.86-17.52,17.52c0,8.37,5.9,15.38,13.75,17.1v27.06
		c0,1.72-1.4,3.11-3.11,3.11h-4.07v-6.87c0-2.08-1.69-3.76-3.76-3.76h-18.2c-1.72,0-3.11-1.4-3.11-3.11v-3.93
		c8.49-1.75,14.9-9.28,14.9-18.28c0-10.29-8.37-18.66-18.66-18.66c-10.29,0-18.66,8.37-18.66,18.66c0,9,6.41,16.53,14.9,18.28v3.93
		c0,5.87,4.77,10.64,10.64,10.64h14.44v28.11h-37.3c-1.72,0-3.11-1.4-3.11-3.11V603c6.12-1.66,10.63-7.26,10.63-13.89
		c0-7.94-6.46-14.4-14.4-14.4c-7.94,0-14.4,6.46-14.4,14.4c0,6.64,4.51,12.23,10.63,13.89v4.24c0,5.87,4.77,10.64,10.64,10.64h37.3
		v44.86c0,2.08,1.69,3.76,3.76,3.76s3.76-1.69,3.76-3.76v-35.69h18.42c1.7,7.15,8.14,12.49,15.81,12.49
		c8.96,0,16.26-7.29,16.26-16.26c0-8.96-7.29-16.26-16.26-16.26c-7.67,0-14.11,5.34-15.81,12.49H923.3V592.87z"/>
	<path d="M2013.39,719.96c0-4.61-3.75-8.36-8.36-8.36s-8.36,3.75-8.36,8.36c0,3.9,2.69,7.19,6.31,8.11v5.1
		c0,0.73-0.6,1.33-1.33,1.33h-12.61v-17.43c3.21-0.9,5.57-3.85,5.57-7.34s-2.36-6.44-5.57-7.34v-3.84c4.68-0.95,8.22-5.1,8.22-10.06
		c0-5.66-4.61-10.27-10.27-10.27c-5.66,0-10.27,4.61-10.27,10.27c0,4.96,3.53,9.11,8.22,10.06v3.84c-3.21,0.9-5.57,3.85-5.57,7.34
		s2.36,6.44,5.57,7.34v6.66h-7.86c-0.94-4.19-4.69-7.33-9.16-7.33c-5.18,0-9.39,4.21-9.39,9.39c0,5.18,4.21,9.39,9.39,9.39
		c4.47,0,8.22-3.14,9.16-7.33h7.86v29.98c0,1.13,0.92,2.05,2.05,2.05c1.13,0,2.05-0.92,2.05-2.05v-19.2h12.61
		c3,0,5.44-2.44,5.44-5.44v-5.1C2010.71,727.15,2013.39,723.86,2013.39,719.96z"/>
	<path d="M1520.76,798.24c-4.25,0-7.83,2.97-8.76,6.94h-4.82V794h13.56c3.64,0,6.59-2.96,6.59-6.59v-0.38
		c2.37-0.85,4.08-3.12,4.08-5.78c0-3.38-2.75-6.13-6.13-6.13s-6.13,2.75-6.13,6.13c0,2.66,1.7,4.93,4.08,5.78v0.38
		c0,1.37-1.11,2.48-2.48,2.48h-13.56V783c4.42-0.95,7.74-4.88,7.74-9.58c0-5.4-4.39-9.8-9.8-9.8s-9.8,4.39-9.8,9.8
		c0,4.7,3.32,8.63,7.74,9.58v15.23h-11.91c-1.37,0-2.48-1.11-2.48-2.48v-0.13c3.99-0.93,6.96-4.51,6.96-8.78
		c0-4.97-4.05-9.02-9.02-9.02s-9.02,4.05-9.02,9.02c0,4.27,2.98,7.85,6.96,8.78v0.13c0,3.64,2.96,6.59,6.59,6.59h11.91v14.32h-4.01
		c-0.83-2.19-2.95-3.75-5.43-3.75c-3.2,0-5.8,2.6-5.8,5.8s2.6,5.8,5.8,5.8c2.48,0,4.59-1.56,5.43-3.75h4.01v21.17
		c0,1.13,0.92,2.05,2.05,2.05c1.13,0,2.05-0.92,2.05-2.05v-32.66h4.82c0.93,3.97,4.5,6.94,8.76,6.94c4.96,0,9-4.04,9-9
		C1529.76,802.27,1525.72,798.24,1520.76,798.24z"/>
	<path d="M540.87,688.76c0-6.95,5.65-12.6,12.6-12.6c6.95,0,12.6,5.65,12.6,12.6c0,6.35-4.72,11.62-10.84,12.48v15.29
		c0,0.88,0.71,1.59,1.59,1.59h2.02c0.79-3.07,3.58-5.35,6.9-5.35c3.32,0,6.11,2.28,6.9,5.35h8.04c0.88,0,1.59-0.71,1.59-1.59v-3.53
		c-4.07-0.82-7.14-4.42-7.14-8.73c0-4.91,3.99-8.9,8.9-8.9s8.9,3.99,8.9,8.9c0,4.3-3.07,7.9-7.14,8.73v3.53
		c0,2.82-2.3,5.12-5.12,5.12h-8.04c-0.64,2.51-2.62,4.49-5.13,5.13v29.08c0,0.97-0.79,1.76-1.76,1.76c-0.97,0-1.76-0.79-1.76-1.76
		v-29.08c-2.51-0.64-4.49-2.62-5.13-5.13h-2.02c-2.82,0-5.12-2.3-5.12-5.12v-15.29C545.59,700.38,540.87,695.11,540.87,688.76z"/>
	<path d="M255.17,758.44c2.8,0,5.16,1.87,5.92,4.42h5.83v-5.95c-4.28-0.82-7.52-4.59-7.52-9.1c0-5.11,4.16-9.27,9.27-9.27
		c5.11,0,9.27,4.16,9.27,9.27c0,4.51-3.24,8.28-7.52,9.1v15.41h3.93c0.97,0,1.75,0.78,1.75,1.75v6.64h7.53v-10.34
		c-3.54-0.8-6.19-3.97-6.19-7.75c0-4.38,3.56-7.94,7.94-7.94s7.94,3.56,7.94,7.94c0,3.78-2.65,6.95-6.19,7.75v12.09
		c0,0.97-0.78,1.75-1.75,1.75h-9.28v14.66c0,0.97-0.78,1.75-1.75,1.75s-1.75-0.78-1.75-1.75v-23.04h-3.93
		c-0.97,0-1.75-0.78-1.75-1.75v-7.7h-5.83c-0.76,2.55-3.12,4.42-5.92,4.42c-3.4,0-6.17-2.77-6.17-6.17
		C249,761.21,251.77,758.44,255.17,758.44z"/>
</g>
</svg>
